<?xml version="1.0" encoding="UTF-8" standalone="no"?>
<!-- Created with Inkscape (http://www.inkscape.org/) -->

<svg
   xmlns:dc="http://purl.org/dc/elements/1.1/"
   xmlns:cc="http://creativecommons.org/ns#"
   xmlns:rdf="http://www.w3.org/1999/02/22-rdf-syntax-ns#"
   xmlns:svg="http://www.w3.org/2000/svg"
   xmlns="http://www.w3.org/2000/svg"
   xmlns:inkscape="http://www.inkscape.org/namespaces/inkscape"
   version="1.1"
   width="720"
   height="720"
   id="svg2"
   xml:space="preserve"><metadata
     id="metadata8"><rdf:RDF><cc:Work
         rdf:about=""><dc:format>image/svg+xml</dc:format><dc:type
           rdf:resource="http://purl.org/dc/dcmitype/StillImage" /><dc:title></dc:title></cc:Work></rdf:RDF></metadata><defs
     id="defs6"><clipPath
       id="clipPath22"><path
         d="m 58.608,160.812 513.36,0 0,361.62 -513.36,0 0,-361.62 z"
         inkscape:connector-curvature="0"
         id="path24" /></clipPath><clipPath
       id="clipPath32"><path
         d="m 57.608,159.812 511.70706,0 0,3.08486 -511.70706,0 0,-3.08486 z"
         inkscape:connector-curvature="0"
         id="path34" /></clipPath><clipPath
       id="clipPath44"><path
         d="m 58.608,160.812 513.36,0 0,361.62 -513.36,0 0,-361.62 z"
         inkscape:connector-curvature="0"
         id="path46" /></clipPath><clipPath
       id="clipPath54"><path
         d="m 57.608,159.812 511.70706,0 0,139.77722 -511.70706,0 0,-139.77722 z"
         inkscape:connector-curvature="0"
         id="path56" /></clipPath><clipPath
       id="clipPath66"><path
         d="m 58.608,160.812 513.36,0 0,361.62 -513.36,0 0,-361.62 z"
         inkscape:connector-curvature="0"
         id="path68" /></clipPath><clipPath
       id="clipPath76"><path
         d="m 57.608,159.812 511.70706,0 0,299.25164 -511.70706,0 0,-299.25164 z"
         inkscape:connector-curvature="0"
         id="path78" /></clipPath><clipPath
       id="clipPath88"><path
         d="m 58.608,160.812 513.36,0 0,361.62 -513.36,0 0,-361.62 z"
         inkscape:connector-curvature="0"
         id="path90" /></clipPath><clipPath
       id="clipPath98"><path
         d="m 57.608,159.812 511.70706,0 0,309.73862 -511.70706,0 0,-309.73862 z"
         inkscape:connector-curvature="0"
         id="path100" /></clipPath><clipPath
       id="clipPath110"><path
         d="m 58.608,160.812 513.36,0 0,361.62 -513.36,0 0,-361.62 z"
         inkscape:connector-curvature="0"
         id="path112" /></clipPath><clipPath
       id="clipPath120"><path
         d="m 57.608,159.812 511.70706,0 0,363.62 -511.70706,0 0,-363.62 z"
         inkscape:connector-curvature="0"
         id="path122" /></clipPath><clipPath
       id="clipPath132"><path
         d="m 58.608,160.812 513.36,0 0,361.62 -513.36,0 0,-361.62 z"
         inkscape:connector-curvature="0"
         id="path134" /></clipPath><clipPath
       id="clipPath142"><path
         d="m 57.608,159.812 511.70706,0 0,363.98162 -511.70706,0 0,-363.98162 z"
         inkscape:connector-curvature="0"
         id="path144" /></clipPath><clipPath
       id="clipPath154"><path
         d="m 58.608,160.812 513.36,0 0,361.62 -513.36,0 0,-361.62 z"
         inkscape:connector-curvature="0"
         id="path156" /></clipPath><clipPath
       id="clipPath164"><path
         d="m 57.608,159.812 511.70706,0 0,363.98162 -511.70706,0 0,-363.98162 z"
         inkscape:connector-curvature="0"
         id="path166" /></clipPath><clipPath
       id="clipPath176"><path
         d="m 58.608,160.812 513.36,0 0,361.62 -513.36,0 0,-361.62 z"
         inkscape:connector-curvature="0"
         id="path178" /></clipPath><clipPath
       id="clipPath186"><path
         d="m 57.608,160.53524 511.70706,0 0,363.25838 -511.70706,0 0,-363.25838 z"
         inkscape:connector-curvature="0"
         id="path188" /></clipPath><clipPath
       id="clipPath198"><path
         d="m 58.608,160.812 513.36,0 0,361.62 -513.36,0 0,-361.62 z"
         inkscape:connector-curvature="0"
         id="path200" /></clipPath><clipPath
       id="clipPath208"><path
         d="m 57.608,160.53524 511.70706,0 0,363.25838 -511.70706,0 0,-363.25838 z"
         inkscape:connector-curvature="0"
         id="path210" /></clipPath><clipPath
       id="clipPath220"><path
         d="m 58.608,160.812 513.36,0 0,361.62 -513.36,0 0,-361.62 z"
         inkscape:connector-curvature="0"
         id="path222" /></clipPath><clipPath
       id="clipPath230"><path
         d="m 57.608,175.36166 511.70706,0 0,348.43196 -511.70706,0 0,-348.43196 z"
         inkscape:connector-curvature="0"
         id="path232" /></clipPath><clipPath
       id="clipPath242"><path
         d="m 58.608,160.812 513.36,0 0,361.62 -513.36,0 0,-361.62 z"
         inkscape:connector-curvature="0"
         id="path244" /></clipPath><clipPath
       id="clipPath252"><path
         d="m 57.608,175.36166 511.70706,0 0,348.43196 -511.70706,0 0,-348.43196 z"
         inkscape:connector-curvature="0"
         id="path254" /></clipPath><clipPath
       id="clipPath264"><path
         d="m 58.608,160.812 513.36,0 0,361.62 -513.36,0 0,-361.62 z"
         inkscape:connector-curvature="0"
         id="path266" /></clipPath><clipPath
       id="clipPath274"><path
         d="m 57.608,175.36166 511.70706,0 0,348.43196 -511.70706,0 0,-348.43196 z"
         inkscape:connector-curvature="0"
         id="path276" /></clipPath><clipPath
       id="clipPath286"><path
         d="m 58.608,160.812 513.36,0 0,361.62 -513.36,0 0,-361.62 z"
         inkscape:connector-curvature="0"
         id="path288" /></clipPath><clipPath
       id="clipPath296"><path
         d="m 57.608,175.36166 511.70706,0 0,348.43196 -511.70706,0 0,-348.43196 z"
         inkscape:connector-curvature="0"
         id="path298" /></clipPath><clipPath
       id="clipPath308"><path
         d="m 58.608,160.812 513.36,0 0,361.62 -513.36,0 0,-361.62 z"
         inkscape:connector-curvature="0"
         id="path310" /></clipPath><clipPath
       id="clipPath318"><path
         d="m 57.608,175.36166 511.70706,0 0,348.43196 -511.70706,0 0,-348.43196 z"
         inkscape:connector-curvature="0"
         id="path320" /></clipPath><clipPath
       id="clipPath330"><path
         d="m 58.608,160.812 513.36,0 0,361.62 -513.36,0 0,-361.62 z"
         inkscape:connector-curvature="0"
         id="path332" /></clipPath><clipPath
       id="clipPath340"><path
         d="m 57.608,188.7416 511.70706,0 0,335.05202 -511.70706,0 0,-335.05202 z"
         inkscape:connector-curvature="0"
         id="path342" /></clipPath><clipPath
       id="clipPath352"><path
         d="m 58.608,160.812 513.36,0 0,361.62 -513.36,0 0,-361.62 z"
         inkscape:connector-curvature="0"
         id="path354" /></clipPath><clipPath
       id="clipPath362"><path
         d="m 57.608,232.49762 511.70706,0 0,291.296 -511.70706,0 0,-291.296 z"
         inkscape:connector-curvature="0"
         id="path364" /></clipPath><clipPath
       id="clipPath374"><path
         d="m 58.608,160.812 513.36,0 0,361.62 -513.36,0 0,-361.62 z"
         inkscape:connector-curvature="0"
         id="path376" /></clipPath><clipPath
       id="clipPath384"><path
         d="m 57.608,287.46386 511.70706,0 0,236.32976 -511.70706,0 0,-236.32976 z"
         inkscape:connector-curvature="0"
         id="path386" /></clipPath><clipPath
       id="clipPath396"><path
         d="m 58.608,160.812 513.36,0 0,361.62 -513.36,0 0,-361.62 z"
         inkscape:connector-curvature="0"
         id="path398" /></clipPath><clipPath
       id="clipPath406"><path
         d="m 57.608,303.73676 511.70706,0 0,220.05686 -511.70706,0 0,-220.05686 z"
         inkscape:connector-curvature="0"
         id="path408" /></clipPath><clipPath
       id="clipPath418"><path
         d="m 58.608,160.812 513.36,0 0,361.62 -513.36,0 0,-361.62 z"
         inkscape:connector-curvature="0"
         id="path420" /></clipPath><clipPath
       id="clipPath428"><path
         d="m 57.608,445.4918 511.70706,0 0,78.30182 -511.70706,0 0,-78.30182 z"
         inkscape:connector-curvature="0"
         id="path430" /></clipPath><clipPath
       id="clipPath440"><path
         d="m 58.608,160.812 513.36,0 0,361.62 -513.36,0 0,-361.62 z"
         inkscape:connector-curvature="0"
         id="path442" /></clipPath><clipPath
       id="clipPath450"><path
         d="m 57.608,445.4918 511.70706,0 0,78.30182 -511.70706,0 0,-78.30182 z"
         inkscape:connector-curvature="0"
         id="path452" /></clipPath><clipPath
       id="clipPath462"><path
         d="m 58.608,160.812 513.36,0 0,361.62 -513.36,0 0,-361.62 z"
         inkscape:connector-curvature="0"
         id="path464" /></clipPath><clipPath
       id="clipPath472"><path
         d="m 57.608,502.98938 511.70706,0 0,22.97396 -511.70706,0 0,-22.97396 z"
         inkscape:connector-curvature="0"
         id="path474" /></clipPath></defs><g
     transform="matrix(1.25,0,0,-1.25,0,720)"
     id="g10"><path
       d="M 0,0 576,0 576,576 0,576 0,0 z"
       inkscape:connector-curvature="0"
       id="path12"
       style="fill:#ffffff;fill-opacity:1;fill-rule:nonzero;stroke:none" /><path
       d="m 58.608,160.812 513.36,0 0,361.62 -513.36,0 0,-361.62 z"
       inkscape:connector-curvature="0"
       id="path14"
       style="fill:#ffffff;fill-opacity:1;fill-rule:nonzero;stroke:none" /><g
       id="g16" /><g
       id="g18"><g
         clip-path="url(#clipPath22)"
         id="g20"><g
           id="g26"><g
             id="g28"><g
               clip-path="url(#clipPath32)"
               id="g30"><path
                 d="m 58.608,161.89686 0,-1.08486 5.114118,0 23.865882,0 5.114118,0 3.409411,0 7.305881,0 3.65294,0 7.79294,0 7.30589,0 7.30588,0 7.54941,0 7.30588,0 8.28,0 7.06236,0 9.9847,0 4.14,0 7.54941,0 7.30589,0 8.28,0 6.57529,0 7.79294,0 7.54941,0 7.54941,0 6.81883,0 8.03647,0 7.06235,0 8.03647,0 6.81883,0 7.06235,0 7.54941,0 7.54941,0 7.30588,0 8.28,0 6.5753,0 7.54941,0 7.79294,0 7.54941,0 7.79294,0 6.81883,0 7.06235,0 7.06235,0 8.03647,0 8.52353,0 5.84471,0 8.28,0 6.81882,0 7.30589,0 7.54941,0 9.01059,0 6.57529,0 6.57529,0 7.06236,0 7.30588,0 8.28,0 8.03647,0 8.76706,0 6.81882,0 13.39412,0 6.81882,0 8.52353,0 6.81883,0 6.81882,0 8.52353,0 6.81882,0 6.81883,0 15.34235,0 8.52353,0 0,0 0,0 -8.52353,0 -15.34235,0 -6.81883,0 -6.81882,0 -8.52353,0 -6.81882,0 -6.81883,0 -8.52353,0 -6.81882,0 -13.39412,0 -6.81882,0 -8.76706,0 -8.03647,0 -8.28,0 -7.30588,0 -7.06236,0 -6.57529,0 -6.57529,0 -9.01059,0 -7.54941,0 -7.30589,0 -6.81882,0 -8.28,0 -5.84471,0 -8.52353,0 -8.03647,0 -7.06235,0 -7.06235,0 -6.81883,0 -7.79294,0 -7.54941,0 -7.79294,0 -7.54941,0 -6.5753,0 -8.28,0 -7.30588,0 -7.54941,0 -7.54941,0 -7.06235,0 -6.81883,0 -8.03647,0 -7.06235,0 -8.03647,0 -6.81883,0 -7.54941,0 -7.54941,0 -7.79294,0 -6.57529,0 -8.28,0 -7.30589,0 -7.54941,0 -4.14,0 -9.9847,0 -7.06236,0 -8.28,0 -7.30588,0 -7.54941,0 -7.30588,0 -7.30589,0 -7.79294,0 -3.65294,0.36162 -7.305881,0 -3.409411,0 -5.114118,0 -23.865882,0.72324 -5.114118,0 z"
                 inkscape:connector-curvature="0"
                 id="path36"
                 style="fill:#000080;fill-opacity:1;fill-rule:nonzero;stroke:none" /></g></g></g></g></g><g
       id="g38" /><g
       id="g40"><g
         clip-path="url(#clipPath44)"
         id="g42"><g
           id="g48"><g
             id="g50"><g
               clip-path="url(#clipPath54)"
               id="g52"><path
                 d="m 58.608,262.0656 0,-100.16874 5.114118,0 23.865882,-0.72324 5.114118,0 3.409411,0 7.305881,0 3.65294,-0.36162 7.79294,0 7.30589,0 7.30588,0 7.54941,0 7.30588,0 8.28,0 7.06236,0 9.9847,0 4.14,0 7.54941,0 7.30589,0 8.28,0 6.57529,0 7.79294,0 7.54941,0 7.54941,0 6.81883,0 8.03647,0 7.06235,0 8.03647,0 6.81883,0 7.06235,0 7.54941,0 7.54941,0 7.30588,0 8.28,0 6.5753,0 7.54941,0 7.79294,0 7.54941,0 7.79294,0 6.81883,0 7.06235,0 7.06235,0 8.03647,0 8.52353,0 5.84471,0 8.28,0 6.81882,0 7.30589,0 7.54941,0 9.01059,0 6.57529,0 6.57529,0 7.06236,0 7.30588,0 8.28,0 8.03647,0 8.76706,0 6.81882,0 13.39412,0 6.81882,0 8.52353,0 6.81883,0 6.81882,0 8.52353,0 6.81882,0 6.81883,0 15.34235,0 8.52353,0 0,0 0,0 -8.52353,0 -15.34235,0 -6.81883,0 -6.81882,0 -8.52353,0 -6.81882,0 -6.81883,0 -8.52353,0 -6.81882,0 -13.39412,0 -6.81882,0 -8.76706,0 -8.03647,0 -8.28,0 -7.30588,0 -7.06236,0 -6.57529,0 -6.57529,0 -9.01059,0 -7.54941,0 -7.30589,0 -6.81882,0 -8.28,0 -5.84471,0 -8.52353,0 -8.03647,0 -7.06235,0 -7.06235,0 -6.81883,0 -7.79294,0 -7.54941,0.36162 -7.79294,0 -7.54941,0 -6.5753,0.36162 -8.28,0 -7.30588,0 -7.54941,0.36162 -7.54941,0 -7.06235,0 -6.81883,0.36162 -8.03647,0.72324 -7.06235,0 -8.03647,0.72324 -6.81883,0.36162 -7.54941,0.72324 -7.54941,-0.36162 -7.79294,1.08486 -6.57529,0.36162 -8.28,1.8081 -7.30589,0.36162 -7.54941,2.53134 -4.14,1.08486 -9.9847,3.25458 -7.06236,2.89296 -8.28,5.78592 -7.30588,5.78592 -7.54941,6.50916 -7.30588,8.31726 -7.30589,11.93346 -7.79294,21.6972 -3.65294,12.29508 -7.305881,34.3539 -3.409411,11.21022 L 87.588,298.58922 63.722118,273.99906 58.608,262.0656 z"
                 inkscape:connector-curvature="0"
                 id="path58"
                 style="fill:#0024ca;fill-opacity:1;fill-rule:nonzero;stroke:none" /></g></g></g></g></g><g
       id="g60" /><g
       id="g62"><g
         clip-path="url(#clipPath66)"
         id="g64"><g
           id="g70"><g
             id="g72"><g
               clip-path="url(#clipPath76)"
               id="g74"><path
                 d="m 58.608,458.06364 0,-195.99804 5.114118,11.93346 23.865882,24.59016 5.114118,-2.89296 3.409411,-11.21022 7.305881,-34.3539 3.65294,-12.29508 7.79294,-21.6972 7.30589,-11.93346 7.30588,-8.31726 7.54941,-6.50916 7.30588,-5.78592 8.28,-5.78592 7.06236,-2.89296 9.9847,-3.25458 4.14,-1.08486 7.54941,-2.53134 7.30589,-0.36162 8.28,-1.8081 6.57529,-0.36162 7.79294,-1.08486 7.54941,0.36162 7.54941,-0.72324 6.81883,-0.36162 8.03647,-0.72324 7.06235,0 8.03647,-0.72324 6.81883,-0.36162 7.06235,0 7.54941,0 7.54941,-0.36162 7.30588,0 8.28,0 6.5753,-0.36162 7.54941,0 7.79294,0 7.54941,-0.36162 7.79294,0 6.81883,0 7.06235,0 7.06235,0 8.03647,0 8.52353,0 5.84471,0 8.28,0 6.81882,0 7.30589,0 7.54941,0 9.01059,0 6.57529,0 6.57529,0 7.06236,0 7.30588,0 8.28,0 8.03647,0 8.76706,0 6.81882,0 13.39412,0 6.81882,0 8.52353,0 6.81883,0 6.81882,0 8.52353,0 6.81882,0 6.81883,0 15.34235,0 8.52353,0 0,0 0,0 -8.52353,0 -15.34235,0 -6.81883,0 -6.81882,0 -8.52353,0 -6.81882,0 -6.81883,0 -8.52353,0 -6.81882,0 -13.39412,0 -6.81882,0 -8.76706,0 -8.03647,0 -8.28,0 -7.30588,0 -7.06236,0 -6.57529,0 -6.57529,0 -9.01059,0 -7.54941,0 -7.30589,0 -6.81882,0 -8.28,0.36162 -5.84471,0 -8.52353,0 -8.03647,0 -7.06235,0 -7.06235,0.36162 -6.81883,0 -7.79294,0 -7.54941,0.72324 -7.79294,0 -7.54941,0.36162 -6.5753,0.36162 -8.28,0.36162 -7.30588,0 -7.54941,0.72324 -7.54941,0.36162 -7.06235,0 -6.81883,0.72324 -8.03647,1.44648 -7.06235,0.36162 -8.03647,1.44648 -6.81883,0.72324 -7.54941,0.72324 -7.54941,1.08486 -7.79294,1.8081 -6.57529,1.08486 -8.28,2.89296 -7.30589,2.16972 -7.54941,4.33944 -4.14,5.78592 -9.9847,8.67888 -7.06236,8.67888 -8.28,15.54966 -7.30588,21.6972 -7.54941,11.57184 -7.30588,12.29508 -7.30589,22.05882 -7.79294,33.26904 -3.65294,17.71938 -7.305881,45.2025 -3.409411,16.2729 L 87.588,412.86114 63.722118,446.13018 58.608,458.06364 z"
                 inkscape:connector-curvature="0"
                 id="path80"
                 style="fill:#0051ff;fill-opacity:1;fill-rule:nonzero;stroke:none" /></g></g></g></g></g><g
       id="g82" /><g
       id="g84"><g
         clip-path="url(#clipPath88)"
         id="g86"><g
           id="g92"><g
             id="g94"><g
               clip-path="url(#clipPath98)"
               id="g96"><path
                 d="m 58.608,468.55062 0,-10.48698 5.114118,-11.93346 23.865882,-33.26904 5.114118,-10.8486 3.409411,-16.2729 7.305881,-45.2025 3.65294,-17.71938 7.79294,-33.26904 7.30589,-22.05882 7.30588,-12.29508 7.54941,-11.57184 7.30588,-21.6972 8.28,-15.54966 7.06236,-8.67888 9.9847,-8.67888 4.14,-5.78592 7.54941,-4.33944 7.30589,-2.16972 8.28,-2.89296 6.57529,-1.08486 7.79294,-1.8081 7.54941,-1.08486 7.54941,-0.72324 6.81883,-0.72324 8.03647,-1.44648 7.06235,-0.36162 8.03647,-1.44648 6.81883,-0.72324 7.06235,0 7.54941,-0.36162 7.54941,-0.72324 7.30588,0 8.28,-0.36162 6.5753,-0.36162 7.54941,-0.36162 7.79294,0 7.54941,-0.72324 7.79294,0 6.81883,0 7.06235,-0.36162 7.06235,0 8.03647,0 8.52353,0 5.84471,0 8.28,-0.36162 6.81882,0 7.30589,0 7.54941,0 9.01059,0 6.57529,0 6.57529,0 7.06236,0 7.30588,0 8.28,0 8.03647,0 8.76706,0 6.81882,0 13.39412,0 6.81882,0 8.52353,0 6.81883,0 6.81882,0 8.52353,0 6.81882,0 6.81883,0 15.34235,0 8.52353,0 0,0 0,0 -8.52353,0 -15.34235,0 -6.81883,0 -6.81882,0 -8.52353,0 -6.81882,0 -6.81883,0 -8.52353,0 -6.81882,0 -13.39412,0 -6.81882,0 -8.76706,0 -8.03647,0 -8.28,0 -7.30588,0 -7.06236,0 -6.57529,0 -6.57529,0 -9.01059,0 -7.54941,0 -7.30589,0 -6.81882,0 -8.28,0.36162 -5.84471,0 -8.52353,0 -8.03647,0 -7.06235,0 -7.06235,0.36162 -6.81883,0 -7.79294,0 -7.54941,0.72324 -7.79294,0 -7.54941,0.36162 -6.5753,0.36162 -8.28,0.36162 -7.30588,0 -7.54941,0.72324 -7.54941,0.36162 -7.06235,0 -6.81883,0.72324 -8.03647,1.44648 -7.06235,0.36162 -8.03647,1.44648 -6.81883,0.72324 -7.54941,0.72324 -7.54941,1.08486 -7.79294,1.8081 -6.57529,1.08486 -8.28,2.89296 -7.30589,2.16972 -7.54941,4.33944 -4.14,5.78592 -9.9847,8.67888 -7.06236,8.67888 -8.28,15.54966 -7.30588,21.6972 -7.54941,11.57184 -7.30588,12.29508 -7.30589,22.05882 -7.79294,33.26904 -3.65294,18.081 -7.305881,45.56412 L 92.702118,403.0974 87.588,413.946 63.722118,448.66152 58.608,468.55062 z"
                 inkscape:connector-curvature="0"
                 id="path102"
                 style="fill:#0081ff;fill-opacity:1;fill-rule:nonzero;stroke:none" /></g></g></g></g></g><g
       id="g104" /><g
       id="g106"><g
         clip-path="url(#clipPath110)"
         id="g108"><g
           id="g114"><g
             id="g116"><g
               clip-path="url(#clipPath120)"
               id="g118"><path
                 d="m 58.608,522.07038 0,-53.51976 5.114118,-19.8891 L 87.588,413.946 l 5.114118,-10.8486 3.409411,-16.63452 7.305881,-45.56412 3.65294,-18.081 7.79294,-33.26904 7.30589,-22.05882 7.30588,-12.29508 7.54941,-11.57184 7.30588,-21.6972 8.28,-15.54966 7.06236,-8.67888 9.9847,-8.67888 4.14,-5.78592 7.54941,-4.33944 7.30589,-2.16972 8.28,-2.89296 6.57529,-1.08486 7.79294,-1.8081 7.54941,-1.08486 7.54941,-0.72324 6.81883,-0.72324 8.03647,-1.44648 7.06235,-0.36162 8.03647,-1.44648 6.81883,-0.72324 7.06235,0 7.54941,-0.36162 7.54941,-0.72324 7.30588,0 8.28,-0.36162 6.5753,-0.36162 7.54941,-0.36162 7.79294,0 7.54941,-0.72324 7.79294,0 6.81883,0 7.06235,-0.36162 7.06235,0 8.03647,0 8.52353,0 5.84471,0 8.28,-0.36162 6.81882,0 7.30589,0 7.54941,0 9.01059,0 6.57529,0 6.57529,0 7.06236,0 7.30588,0 8.28,0 8.03647,0 8.76706,0 6.81882,0 13.39412,0 6.81882,0 8.52353,0 6.81883,0 6.81882,0 8.52353,0 6.81882,0 6.81883,0 15.34235,0 8.52353,0 0,0 0,0 -8.52353,0 -15.34235,0 -6.81883,0 -6.81882,0 -8.52353,0 -6.81882,0 -6.81883,0 -8.52353,0 -6.81882,0 -13.39412,0 -6.81882,0 -8.76706,0 -8.03647,0 -8.28,0 -7.30588,0 -7.06236,0 -6.57529,0 -6.57529,0 -9.01059,0 -7.54941,0 -7.30589,0 -6.81882,0 -8.28,0.36162 -5.84471,0 -8.52353,0 -8.03647,0 -7.06235,0 -7.06235,0.36162 -6.81883,0 -7.79294,0 -7.54941,0.72324 -7.79294,0 -7.54941,0.36162 -6.5753,0.36162 -8.28,0.36162 -7.30588,0 -7.54941,0.72324 -7.54941,0.36162 -7.06235,0 -6.81883,0.72324 -8.03647,1.44648 -7.06235,0.36162 -8.03647,1.44648 -6.81883,0.72324 -7.54941,0.72324 -7.54941,1.08486 -7.79294,1.8081 -6.57529,1.08486 -8.28,2.89296 -7.30589,2.16972 -7.54941,4.33944 -4.14,5.78592 -9.9847,8.67888 -7.06236,8.67888 -8.28,15.54966 -7.30588,21.6972 -7.54941,11.57184 -7.30588,12.29508 -7.30589,22.05882 -7.79294,33.26904 -3.65294,19.16586 -7.305881,45.92574 -3.409411,17.35776 L 87.588,423.70974 63.722118,522.432 58.608,522.07038 z"
                 inkscape:connector-curvature="0"
                 id="path124"
                 style="fill:#00aeff;fill-opacity:1;fill-rule:nonzero;stroke:none" /></g></g></g></g></g><g
       id="g126" /><g
       id="g128"><g
         clip-path="url(#clipPath132)"
         id="g130"><g
           id="g136"><g
             id="g138"><g
               clip-path="url(#clipPath142)"
               id="g140"><path
                 d="m 58.608,522.07038 0,0 5.114118,0.36162 23.865882,-98.72226 5.114118,-18.44262 3.409411,-17.35776 7.305881,-45.92574 3.65294,-19.16586 7.79294,-33.26904 7.30589,-22.05882 7.30588,-12.29508 7.54941,-11.57184 7.30588,-21.6972 8.28,-15.54966 7.06236,-8.67888 9.9847,-8.67888 4.14,-5.78592 7.54941,-4.33944 7.30589,-2.16972 8.28,-2.89296 6.57529,-1.08486 7.79294,-1.8081 7.54941,-1.08486 7.54941,-0.72324 6.81883,-0.72324 8.03647,-1.44648 7.06235,-0.36162 8.03647,-1.44648 6.81883,-0.72324 7.06235,0 7.54941,-0.36162 7.54941,-0.72324 7.30588,0 8.28,-0.36162 6.5753,-0.36162 7.54941,-0.36162 7.79294,0 7.54941,-0.72324 7.79294,0 6.81883,0 7.06235,-0.36162 7.06235,0 8.03647,0 8.52353,0 5.84471,0 8.28,-0.36162 6.81882,0 7.30589,0 7.54941,0 9.01059,0 6.57529,0 6.57529,0 7.06236,0 7.30588,0 8.28,0 8.03647,0 8.76706,0 6.81882,0 13.39412,0 6.81882,0 8.52353,0 6.81883,0 6.81882,0 8.52353,0 6.81882,0 6.81883,0 15.34235,0 8.52353,0 0,0 0,0 -8.52353,0 -15.34235,0 -6.81883,0 -6.81882,0 -8.52353,0 -6.81882,0 -6.81883,0 -8.52353,0 -6.81882,0 -13.39412,0 -6.81882,0 -8.76706,0 -8.03647,0 -8.28,0 -7.30588,0 -7.06236,0 -6.57529,0 -6.57529,0 -9.01059,0 -7.54941,0 -7.30589,0 -6.81882,0 -8.28,4.70106 -5.84471,0.72324 -8.52353,0.36162 -8.03647,0.72324 -7.06235,0 -7.06235,1.08486 -6.81883,1.08486 -7.79294,0.72324 -7.54941,1.8081 -7.79294,1.44648 -7.54941,1.44648 -6.5753,1.44648 -8.28,2.16972 -7.30588,1.8081 -7.54941,2.53134 -7.54941,1.44648 -7.06235,1.8081 -6.81883,2.89296 -8.03647,5.06268 -7.06235,3.6162 -8.03647,5.4243 -6.81883,4.70106 -7.54941,4.33944 -7.54941,6.87078 -7.79294,8.67888 -6.57529,9.40212 -8.28,16.2729 -7.30589,14.10318 -7.54941,14.10318 -4.14,12.29508 -9.9847,17.35776 -7.06236,22.42044 -8.28,31.46094 -7.30588,26.03664 -7.54941,10.12536 -7.30588,16.99614 -7.30589,87.15042 -7.79294,9.40212 -3.65294,7.95564 -7.305881,-0.36162 -3.409411,0 -5.114118,0 -23.865882,0 -5.114118,-0.36162 z"
                 inkscape:connector-curvature="0"
                 id="path146"
                 style="fill:#00deff;fill-opacity:1;fill-rule:nonzero;stroke:none" /></g></g></g></g></g><g
       id="g148" /><g
       id="g150"><g
         clip-path="url(#clipPath154)"
         id="g152"><g
           id="g158"><g
             id="g160"><g
               clip-path="url(#clipPath164)"
               id="g162"><path
                 d="m 58.608,522.07038 0,0 5.114118,0.36162 23.865882,0 5.114118,0 3.409411,0 7.305881,0.36162 3.65294,-7.95564 7.79294,-9.40212 7.30589,-87.15042 7.30588,-16.99614 7.54941,-10.12536 7.30588,-26.03664 8.28,-31.46094 7.06236,-22.42044 9.9847,-17.35776 4.14,-12.29508 7.54941,-14.10318 7.30589,-14.10318 8.28,-16.2729 6.57529,-9.40212 7.79294,-8.67888 7.54941,-6.87078 7.54941,-4.33944 6.81883,-4.70106 8.03647,-5.4243 7.06235,-3.6162 8.03647,-5.06268 6.81883,-2.89296 7.06235,-1.8081 7.54941,-1.44648 7.54941,-2.53134 7.30588,-1.8081 8.28,-2.16972 6.5753,-1.44648 7.54941,-1.44648 7.79294,-1.44648 7.54941,-1.8081 7.79294,-0.72324 6.81883,-1.08486 7.06235,-1.08486 7.06235,0 8.03647,-0.72324 8.52353,-0.36162 5.84471,-0.72324 8.28,-4.70106 6.81882,0 7.30589,0 7.54941,0 9.01059,0 6.57529,0 6.57529,0 7.06236,0 7.30588,0 8.28,0 8.03647,0 8.76706,0 6.81882,0 13.39412,0 6.81882,0 8.52353,0 6.81883,0 6.81882,0 8.52353,0 6.81882,0 6.81883,0 15.34235,0 8.52353,0 0,0.72324 0,0 -8.52353,0.36162 -15.34235,0 -6.81883,0 -6.81882,0.36162 -8.52353,0 -6.81882,0 -6.81883,0 -8.52353,0.36162 -6.81882,0.36162 -13.39412,0.36162 -6.81882,0 -8.76706,0 -8.03647,0.36162 -8.28,0.72324 -7.30588,0.36162 -7.06236,0.36162 -6.57529,0.36162 -6.57529,0 -9.01059,1.08486 -7.54941,0.36162 -7.30589,1.8081 -6.81882,0.72324 -8.28,5.06268 -5.84471,2.89296 -8.52353,0.72324 -8.03647,2.53134 -7.06235,1.08486 -7.06235,13.74156 -6.81883,3.25458 -7.79294,3.97782 -7.54941,6.50916 -7.79294,7.59402 -7.54941,4.70106 -6.5753,5.4243 -8.28,7.59402 -7.30588,8.31726 -7.54941,9.0405 -7.54941,7.95564 -7.06235,9.76374 -6.81883,10.8486 -8.03647,14.10318 -7.06235,13.01832 -8.03647,23.14368 -6.81883,24.22854 -7.54941,20.97396 -7.54941,28.20636 -7.79294,25.67502 -6.57529,22.05882 -8.28,35.07714 -7.30589,18.80424 -7.54941,6.87078 -4.14,2.89296 -9.9847,3.97782 -7.06236,1.44648 -8.28,1.08486 -7.30588,0 -7.54941,0 -7.30588,0 -7.30589,-0.36162 -7.79294,-0.36162 -3.65294,1.44648 -7.305881,-0.36162 -3.409411,0 -5.114118,0 -23.865882,0 -5.114118,-0.36162 z"
                 inkscape:connector-curvature="0"
                 id="path168"
                 style="fill:#23ffd2;fill-opacity:1;fill-rule:nonzero;stroke:none" /></g></g></g></g></g><g
       id="g170" /><g
       id="g172"><g
         clip-path="url(#clipPath176)"
         id="g174"><g
           id="g180"><g
             id="g182"><g
               clip-path="url(#clipPath186)"
               id="g184"><path
                 d="m 58.608,522.07038 0,0 5.114118,0.36162 23.865882,0 5.114118,0 3.409411,0 7.305881,0.36162 3.65294,-1.44648 7.79294,0.36162 7.30589,0.36162 7.30588,0 7.54941,0 7.30588,0 8.28,-1.08486 7.06236,-1.44648 9.9847,-3.97782 4.14,-2.89296 7.54941,-6.87078 7.30589,-18.80424 8.28,-35.07714 6.57529,-22.05882 7.79294,-25.67502 7.54941,-28.20636 7.54941,-20.97396 6.81883,-24.22854 8.03647,-23.14368 7.06235,-13.01832 8.03647,-14.10318 6.81883,-10.8486 7.06235,-9.76374 7.54941,-7.95564 7.54941,-9.0405 7.30588,-8.31726 8.28,-7.59402 6.5753,-5.4243 7.54941,-4.70106 7.79294,-7.59402 7.54941,-6.50916 7.79294,-3.97782 6.81883,-3.25458 7.06235,-13.74156 7.06235,-1.08486 8.03647,-2.53134 8.52353,-0.72324 5.84471,-2.89296 8.28,-5.06268 6.81882,-0.72324 7.30589,-1.8081 7.54941,-0.36162 9.01059,-1.08486 6.57529,0 6.57529,-0.36162 7.06236,-0.36162 7.30588,-0.36162 8.28,-0.72324 8.03647,-0.36162 8.76706,0 6.81882,0 13.39412,-0.36162 6.81882,-0.36162 8.52353,-0.36162 6.81883,0 6.81882,0 8.52353,0 6.81882,-0.36162 6.81883,0 15.34235,0 8.52353,-0.36162 0,0 0,0 -8.52353,0.36162 -15.34235,0 -6.81883,0 -6.81882,0.36162 -8.52353,0 -6.81882,0 -6.81883,0 -8.52353,0.36162 -6.81882,0.36162 -13.39412,0.36162 -6.81882,0 -8.76706,0 -8.03647,0.36162 -8.28,0.72324 -7.30588,0.36162 -7.06236,0.36162 -6.57529,0.36162 -6.57529,0 -9.01059,1.08486 -7.54941,0.36162 -7.30589,1.8081 -6.81882,0.72324 -8.28,5.4243 -5.84471,2.53134 -8.52353,1.08486 -8.03647,2.53134 -7.06235,1.08486 -7.06235,14.10318 -6.81883,3.25458 -7.79294,3.97782 -7.54941,6.50916 -7.79294,7.95564 -7.54941,4.70106 -6.5753,5.4243 -8.28,7.59402 -7.30588,8.67888 -7.54941,9.0405 -7.54941,8.31726 -7.06235,9.76374 -6.81883,10.8486 -8.03647,14.10318 -7.06235,13.37994 -8.03647,22.78206 -6.81883,24.22854 -7.54941,20.97396 -7.54941,28.56798 -7.79294,25.67502 -6.57529,23.5053 -8.28,35.43876 -7.30589,18.44262 -7.54941,6.14754 -4.14,2.53134 -9.9847,4.33944 -7.06236,0 -8.28,-0.36162 -7.30588,0 -7.54941,0 -7.30588,0 -7.30589,-0.36162 -7.79294,-0.36162 -3.65294,1.44648 -7.305881,-0.36162 -3.409411,0 -5.114118,0 -23.865882,0 -5.114118,-0.36162 z"
                 inkscape:connector-curvature="0"
                 id="path190"
                 style="fill:#5cff9a;fill-opacity:1;fill-rule:nonzero;stroke:none" /></g></g></g></g></g><g
       id="g192" /><g
       id="g194"><g
         clip-path="url(#clipPath198)"
         id="g196"><g
           id="g202"><g
             id="g204"><g
               clip-path="url(#clipPath208)"
               id="g206"><path
                 d="m 58.608,522.07038 0,0 5.114118,0.36162 23.865882,0 5.114118,0 3.409411,0 7.305881,0.36162 3.65294,-1.44648 7.79294,0.36162 7.30589,0.36162 7.30588,0 7.54941,0 7.30588,0 8.28,0.36162 7.06236,0 9.9847,-4.33944 4.14,-2.53134 7.54941,-6.14754 7.30589,-18.44262 8.28,-35.43876 6.57529,-23.5053 7.79294,-25.67502 7.54941,-28.56798 7.54941,-20.97396 6.81883,-24.22854 8.03647,-22.78206 7.06235,-13.37994 8.03647,-14.10318 6.81883,-10.8486 7.06235,-9.76374 7.54941,-8.31726 7.54941,-9.0405 7.30588,-8.67888 8.28,-7.59402 6.5753,-5.4243 7.54941,-4.70106 7.79294,-7.95564 7.54941,-6.50916 7.79294,-3.97782 6.81883,-3.25458 7.06235,-14.10318 7.06235,-1.08486 8.03647,-2.53134 8.52353,-1.08486 5.84471,-2.53134 8.28,-5.4243 6.81882,-0.72324 7.30589,-1.8081 7.54941,-0.36162 9.01059,-1.08486 6.57529,0 6.57529,-0.36162 7.06236,-0.36162 7.30588,-0.36162 8.28,-0.72324 8.03647,-0.36162 8.76706,0 6.81882,0 13.39412,-0.36162 6.81882,-0.36162 8.52353,-0.36162 6.81883,0 6.81882,0 8.52353,0 6.81882,-0.36162 6.81883,0 15.34235,0 8.52353,-0.36162 0,14.82642 0,0 -8.52353,2.16972 -15.34235,3.6162 -6.81883,0.36162 -6.81882,2.89296 -8.52353,1.8081 -6.81882,1.8081 -6.81883,1.44648 -8.52353,5.06268 -6.81882,2.89296 -13.39412,6.14754 -6.81882,7.95564 -8.76706,-0.36162 -8.03647,5.4243 -8.28,5.4243 -7.30588,6.14754 -7.06236,4.70106 -6.57529,3.97782 -6.57529,4.33944 -9.01059,11.57184 -7.54941,8.31726 -7.30589,9.76374 -6.81882,8.67888 -8.28,13.74156 -5.84471,6.50916 -8.52353,9.40212 -8.03647,9.76374 -7.06235,5.78592 -7.06235,29.29122 -6.81883,8.67888 -7.79294,11.21022 -7.54941,18.081 -7.79294,19.8891 -7.54941,10.48698 -6.5753,11.57184 -8.28,18.80424 -7.30588,20.61234 -7.54941,12.6567 -7.54941,5.78592 -7.06235,7.2324 -6.81883,4.70106 -8.03647,1.8081 -7.06235,1.8081 -8.03647,5.4243 -6.81883,1.8081 -7.54941,0.36162 -7.54941,1.44648 -7.79294,0.36162 -6.57529,1.44648 -8.28,1.08486 -7.30589,0 -7.54941,1.44648 -4.14,0 -9.9847,0.72324 -7.06236,0 -8.28,-0.36162 -7.30588,0 -7.54941,0 -7.30588,0 -7.30589,-0.36162 -7.79294,-0.36162 -3.65294,1.44648 -7.305881,-0.36162 -3.409411,0 -5.114118,0 -23.865882,0 -5.114118,-0.36162 z"
                 inkscape:connector-curvature="0"
                 id="path212"
                 style="fill:#91ff66;fill-opacity:1;fill-rule:nonzero;stroke:none" /></g></g></g></g></g><g
       id="g214" /><g
       id="g216"><g
         clip-path="url(#clipPath220)"
         id="g218"><g
           id="g224"><g
             id="g226"><g
               clip-path="url(#clipPath230)"
               id="g228"><path
                 d="m 58.608,522.07038 0,0 5.114118,0.36162 23.865882,0 5.114118,0 3.409411,0 7.305881,0.36162 3.65294,-1.44648 7.79294,0.36162 7.30589,0.36162 7.30588,0 7.54941,0 7.30588,0 8.28,0.36162 7.06236,0 9.9847,-0.72324 4.14,0 7.54941,-1.44648 7.30589,0 8.28,-1.08486 6.57529,-1.44648 7.79294,-0.36162 7.54941,-1.44648 7.54941,-0.36162 6.81883,-1.8081 8.03647,-5.4243 7.06235,-1.8081 8.03647,-1.8081 6.81883,-4.70106 7.06235,-7.2324 7.54941,-5.78592 7.54941,-12.6567 7.30588,-20.61234 8.28,-18.80424 6.5753,-11.57184 7.54941,-10.48698 7.79294,-19.8891 7.54941,-18.081 7.79294,-11.21022 6.81883,-8.67888 7.06235,-29.29122 7.06235,-5.78592 8.03647,-9.76374 8.52353,-9.40212 5.84471,-6.50916 8.28,-13.74156 6.81882,-8.67888 7.30589,-9.76374 7.54941,-8.31726 9.01059,-11.57184 6.57529,-4.33944 6.57529,-3.97782 7.06236,-4.70106 7.30588,-6.14754 8.28,-5.4243 8.03647,-5.4243 8.76706,0.36162 6.81882,-7.95564 13.39412,-6.14754 6.81882,-2.89296 8.52353,-5.06268 6.81883,-1.44648 6.81882,-1.8081 8.52353,-1.8081 6.81882,-2.89296 6.81883,-0.36162 15.34235,-3.6162 8.52353,-2.16972 0,0 0,0 -8.52353,2.16972 -15.34235,3.6162 -6.81883,0.36162 -6.81882,2.89296 -8.52353,1.8081 -6.81882,1.8081 -6.81883,1.44648 -8.52353,5.06268 -6.81882,2.89296 -13.39412,6.14754 -6.81882,7.95564 -8.76706,-0.36162 -8.03647,5.4243 -8.28,5.4243 -7.30588,6.14754 -7.06236,4.70106 -6.57529,3.97782 -6.57529,4.33944 -9.01059,11.57184 -7.54941,8.31726 -7.30589,9.76374 -6.81882,8.67888 -8.28,13.74156 -5.84471,6.50916 -8.52353,9.40212 -8.03647,9.76374 -7.06235,5.78592 -7.06235,29.29122 -6.81883,8.67888 -7.79294,11.21022 -7.54941,18.081 -7.79294,19.8891 -7.54941,10.48698 -6.5753,11.57184 -8.28,18.80424 -7.30588,20.61234 -7.54941,12.6567 -7.54941,6.14754 -7.06235,7.2324 -6.81883,4.70106 -8.03647,1.8081 -7.06235,1.8081 -8.03647,5.4243 -6.81883,1.8081 -7.54941,0.72324 -7.54941,1.44648 -7.79294,1.08486 -6.57529,1.44648 -8.28,0.72324 -7.30589,0 -7.54941,1.08486 -4.14,0 -9.9847,0 -7.06236,0 -8.28,-0.36162 -7.30588,0 -7.54941,0 -7.30588,0 -7.30589,-0.36162 -7.79294,-0.36162 -3.65294,1.44648 -7.305881,-0.36162 -3.409411,0 -5.114118,0 -23.865882,0 -5.114118,-0.36162 z"
                 inkscape:connector-curvature="0"
                 id="path234"
                 style="fill:#c9ff2e;fill-opacity:1;fill-rule:nonzero;stroke:none" /></g></g></g></g></g><g
       id="g236" /><g
       id="g238"><g
         clip-path="url(#clipPath242)"
         id="g240"><g
           id="g246"><g
             id="g248"><g
               clip-path="url(#clipPath252)"
               id="g250"><path
                 d="m 58.608,522.07038 0,0 5.114118,0.36162 23.865882,0 5.114118,0 3.409411,0 7.305881,0.36162 3.65294,-1.44648 7.79294,0.36162 7.30589,0.36162 7.30588,0 7.54941,0 7.30588,0 8.28,0.36162 7.06236,0 9.9847,0 4.14,0 7.54941,-1.08486 7.30589,0 8.28,-0.72324 6.57529,-1.44648 7.79294,-1.08486 7.54941,-1.44648 7.54941,-0.72324 6.81883,-1.8081 8.03647,-5.4243 7.06235,-1.8081 8.03647,-1.8081 6.81883,-4.70106 7.06235,-7.2324 7.54941,-6.14754 7.54941,-12.6567 7.30588,-20.61234 8.28,-18.80424 6.5753,-11.57184 7.54941,-10.48698 7.79294,-19.8891 7.54941,-18.081 7.79294,-11.21022 6.81883,-8.67888 7.06235,-29.29122 7.06235,-5.78592 8.03647,-9.76374 8.52353,-9.40212 5.84471,-6.50916 8.28,-13.74156 6.81882,-8.67888 7.30589,-9.76374 7.54941,-8.31726 9.01059,-11.57184 6.57529,-4.33944 6.57529,-3.97782 7.06236,-4.70106 7.30588,-6.14754 8.28,-5.4243 8.03647,-5.4243 8.76706,0.36162 6.81882,-7.95564 13.39412,-6.14754 6.81882,-2.89296 8.52353,-5.06268 6.81883,-1.44648 6.81882,-1.8081 8.52353,-1.8081 6.81882,-2.89296 6.81883,-0.36162 15.34235,-3.6162 8.52353,-2.16972 0,0 0,0 -8.52353,2.16972 -15.34235,3.6162 -6.81883,0.36162 -6.81882,2.89296 -8.52353,1.8081 -6.81882,1.8081 -6.81883,1.44648 -8.52353,5.06268 -6.81882,2.89296 -13.39412,6.14754 -6.81882,7.95564 -8.76706,-0.36162 -8.03647,5.4243 -8.28,5.4243 -7.30588,6.14754 -7.06236,4.70106 -6.57529,3.97782 -6.57529,4.33944 -9.01059,11.57184 -7.54941,8.31726 -7.30589,9.76374 -6.81882,8.67888 -8.28,13.74156 -5.84471,6.50916 -8.52353,9.40212 -8.03647,9.76374 -7.06235,5.78592 -7.06235,30.37608 -6.81883,8.67888 -7.79294,11.57184 -7.54941,18.081 -7.79294,19.8891 -7.54941,10.48698 -6.5753,11.93346 -8.28,18.80424 -7.30588,20.61234 -7.54941,13.37994 -7.54941,7.2324 -7.06235,7.2324 -6.81883,5.06268 -8.03647,2.89296 -7.06235,2.16972 -8.03647,3.97782 -6.81883,1.08486 -7.54941,0.72324 -7.54941,0.72324 -7.79294,1.08486 -6.57529,0.72324 -8.28,0 -7.30589,-1.08486 -7.54941,1.08486 -4.14,0 -9.9847,0 -7.06236,0 -8.28,-0.36162 -7.30588,0 -7.54941,0 -7.30588,0 -7.30589,-0.36162 -7.79294,-0.36162 -3.65294,1.44648 -7.305881,-0.36162 -3.409411,0 -5.114118,0 -23.865882,0 -5.114118,-0.36162 z"
                 inkscape:connector-curvature="0"
                 id="path256"
                 style="fill:#feed00;fill-opacity:1;fill-rule:nonzero;stroke:none" /></g></g></g></g></g><g
       id="g258" /><g
       id="g260"><g
         clip-path="url(#clipPath264)"
         id="g262"><g
           id="g268"><g
             id="g270"><g
               clip-path="url(#clipPath274)"
               id="g272"><path
                 d="m 58.608,522.07038 0,0 5.114118,0.36162 23.865882,0 5.114118,0 3.409411,0 7.305881,0.36162 3.65294,-1.44648 7.79294,0.36162 7.30589,0.36162 7.30588,0 7.54941,0 7.30588,0 8.28,0.36162 7.06236,0 9.9847,0 4.14,0 7.54941,-1.08486 7.30589,1.08486 8.28,0 6.57529,-0.72324 7.79294,-1.08486 7.54941,-0.72324 7.54941,-0.72324 6.81883,-1.08486 8.03647,-3.97782 7.06235,-2.16972 8.03647,-2.89296 6.81883,-5.06268 7.06235,-7.2324 7.54941,-7.2324 7.54941,-13.37994 7.30588,-20.61234 8.28,-18.80424 6.5753,-11.93346 7.54941,-10.48698 7.79294,-19.8891 7.54941,-18.081 7.79294,-11.57184 6.81883,-8.67888 7.06235,-30.37608 7.06235,-5.78592 8.03647,-9.76374 8.52353,-9.40212 5.84471,-6.50916 8.28,-13.74156 6.81882,-8.67888 7.30589,-9.76374 7.54941,-8.31726 9.01059,-11.57184 6.57529,-4.33944 6.57529,-3.97782 7.06236,-4.70106 7.30588,-6.14754 8.28,-5.4243 8.03647,-5.4243 8.76706,0.36162 6.81882,-7.95564 13.39412,-6.14754 6.81882,-2.89296 8.52353,-5.06268 6.81883,-1.44648 6.81882,-1.8081 8.52353,-1.8081 6.81882,-2.89296 6.81883,-0.36162 15.34235,-3.6162 8.52353,-2.16972 0,0 0,0 -8.52353,2.16972 -15.34235,3.6162 -6.81883,0.36162 -6.81882,2.89296 -8.52353,1.8081 -6.81882,1.8081 -6.81883,1.44648 -8.52353,5.06268 -6.81882,2.89296 -13.39412,6.14754 -6.81882,7.95564 -8.76706,-0.36162 -8.03647,5.4243 -8.28,5.78592 -7.30588,6.14754 -7.06236,4.70106 -6.57529,3.97782 -6.57529,4.33944 -9.01059,11.57184 -7.54941,8.31726 -7.30589,9.76374 -6.81882,8.67888 -8.28,13.74156 -5.84471,6.50916 -8.52353,9.40212 -8.03647,9.76374 -7.06235,6.14754 -7.06235,32.90742 -6.81883,9.0405 -7.79294,11.93346 -7.54941,18.44262 -7.79294,20.61234 -7.54941,10.8486 -6.5753,12.29508 -8.28,19.52748 -7.30588,20.97396 -7.54941,13.74156 -7.54941,7.95564 -7.06235,7.2324 -6.81883,4.70106 -8.03647,2.16972 -7.06235,1.44648 -8.03647,2.16972 -6.81883,0 -7.54941,0 -7.54941,0 -7.79294,0 -6.57529,0 -8.28,0 -7.30589,-1.08486 -7.54941,1.08486 -4.14,0 -9.9847,0 -7.06236,0 -8.28,-0.36162 -7.30588,0 -7.54941,0 -7.30588,0 -7.30589,-0.36162 -7.79294,-0.36162 -3.65294,1.44648 -7.305881,-0.36162 -3.409411,0 -5.114118,0 -23.865882,0 -5.114118,-0.36162 z"
                 inkscape:connector-curvature="0"
                 id="path278"
                 style="fill:#ffac00;fill-opacity:1;fill-rule:nonzero;stroke:none" /></g></g></g></g></g><g
       id="g280" /><g
       id="g282"><g
         clip-path="url(#clipPath286)"
         id="g284"><g
           id="g290"><g
             id="g292"><g
               clip-path="url(#clipPath296)"
               id="g294"><path
                 d="m 58.608,522.07038 0,0 5.114118,0.36162 23.865882,0 5.114118,0 3.409411,0 7.305881,0.36162 3.65294,-1.44648 7.79294,0.36162 7.30589,0.36162 7.30588,0 7.54941,0 7.30588,0 8.28,0.36162 7.06236,0 9.9847,0 4.14,0 7.54941,-1.08486 7.30589,1.08486 8.28,0 6.57529,0 7.79294,0 7.54941,0 7.54941,0 6.81883,0 8.03647,-2.16972 7.06235,-1.44648 8.03647,-2.16972 6.81883,-4.70106 7.06235,-7.2324 7.54941,-7.95564 7.54941,-13.74156 7.30588,-20.97396 8.28,-19.52748 6.5753,-12.29508 7.54941,-10.8486 7.79294,-20.61234 7.54941,-18.44262 7.79294,-11.93346 6.81883,-9.0405 7.06235,-32.90742 7.06235,-6.14754 8.03647,-9.76374 8.52353,-9.40212 5.84471,-6.50916 8.28,-13.74156 6.81882,-8.67888 7.30589,-9.76374 7.54941,-8.31726 9.01059,-11.57184 6.57529,-4.33944 6.57529,-3.97782 7.06236,-4.70106 7.30588,-6.14754 8.28,-5.78592 8.03647,-5.4243 8.76706,0.36162 6.81882,-7.95564 13.39412,-6.14754 6.81882,-2.89296 8.52353,-5.06268 6.81883,-1.44648 6.81882,-1.8081 8.52353,-1.8081 6.81882,-2.89296 6.81883,-0.36162 15.34235,-3.6162 8.52353,-2.16972 0,0 0,0 -8.52353,2.16972 -15.34235,3.6162 -6.81883,0.36162 -6.81882,2.89296 -8.52353,1.8081 -6.81882,1.8081 -6.81883,1.44648 -8.52353,5.06268 -6.81882,2.89296 -13.39412,6.14754 -6.81882,7.95564 -8.76706,-0.36162 -8.03647,5.4243 -8.28,5.78592 -7.30588,6.14754 -7.06236,4.70106 -6.57529,3.97782 -6.57529,4.33944 -9.01059,11.57184 -7.54941,8.31726 -7.30589,9.76374 -6.81882,8.67888 -8.28,13.74156 -5.84471,6.50916 -8.52353,9.40212 -8.03647,9.76374 -7.06235,6.14754 -7.06235,32.90742 -6.81883,9.0405 -7.79294,11.93346 -7.54941,18.44262 -7.79294,20.61234 -7.54941,10.8486 -6.5753,12.6567 -8.28,19.52748 -7.30588,21.33558 -7.54941,14.4648 -7.54941,8.31726 -7.06235,7.2324 -6.81883,4.33944 -8.03647,1.8081 -7.06235,1.44648 -8.03647,1.08486 -6.81883,0 -7.54941,0 -7.54941,0 -7.79294,0 -6.57529,0 -8.28,0 -7.30589,-1.08486 -7.54941,1.08486 -4.14,0 -9.9847,0 -7.06236,0 -8.28,-0.36162 -7.30588,0 -7.54941,0 -7.30588,0 -7.30589,-0.36162 -7.79294,-0.36162 -3.65294,1.44648 -7.305881,-0.36162 -3.409411,0 -5.114118,0 -23.865882,0 -5.114118,-0.36162 z"
                 inkscape:connector-curvature="0"
                 id="path300"
                 style="fill:#ff7000;fill-opacity:1;fill-rule:nonzero;stroke:none" /></g></g></g></g></g><g
       id="g302" /><g
       id="g304"><g
         clip-path="url(#clipPath308)"
         id="g306"><g
           id="g312"><g
             id="g314"><g
               clip-path="url(#clipPath318)"
               id="g316"><path
                 d="m 58.608,522.07038 0,0 5.114118,0.36162 23.865882,0 5.114118,0 3.409411,0 7.305881,0.36162 3.65294,-1.44648 7.79294,0.36162 7.30589,0.36162 7.30588,0 7.54941,0 7.30588,0 8.28,0.36162 7.06236,0 9.9847,0 4.14,0 7.54941,-1.08486 7.30589,1.08486 8.28,0 6.57529,0 7.79294,0 7.54941,0 7.54941,0 6.81883,0 8.03647,-1.08486 7.06235,-1.44648 8.03647,-1.8081 6.81883,-4.33944 7.06235,-7.2324 7.54941,-8.31726 7.54941,-14.4648 7.30588,-21.33558 8.28,-19.52748 6.5753,-12.6567 7.54941,-10.8486 7.79294,-20.61234 7.54941,-18.44262 7.79294,-11.93346 6.81883,-9.0405 7.06235,-32.90742 7.06235,-6.14754 8.03647,-9.76374 8.52353,-9.40212 5.84471,-6.50916 8.28,-13.74156 6.81882,-8.67888 7.30589,-9.76374 7.54941,-8.31726 9.01059,-11.57184 6.57529,-4.33944 6.57529,-3.97782 7.06236,-4.70106 7.30588,-6.14754 8.28,-5.78592 8.03647,-5.4243 8.76706,0.36162 6.81882,-7.95564 13.39412,-6.14754 6.81882,-2.89296 8.52353,-5.06268 6.81883,-1.44648 6.81882,-1.8081 8.52353,-1.8081 6.81882,-2.89296 6.81883,-0.36162 15.34235,-3.6162 8.52353,-2.16972 0,13.37994 0,0 -8.52353,3.6162 -15.34235,7.2324 -6.81883,1.08486 -6.81882,4.33944 -8.52353,2.53134 -6.81882,3.6162 -6.81883,2.53134 -8.52353,9.0405 -6.81882,5.4243 -13.39412,10.12536 -6.81882,11.57184 -8.76706,2.53134 -8.03647,8.67888 -8.28,9.76374 -7.30588,9.40212 -7.06236,7.95564 -6.57529,7.2324 -6.57529,7.2324 -9.01059,17.71938 -7.54941,12.6567 -7.30589,12.6567 -6.81882,12.6567 -8.28,16.63452 -5.84471,9.40212 -8.52353,17.71938 -8.03647,16.63452 -7.06235,12.6567 -7.06235,30.37608 -6.81883,10.48698 -7.79294,12.29508 -7.54941,12.6567 -7.79294,14.4648 -7.54941,3.25458 -6.5753,2.16972 -8.28,1.44648 -7.30588,2.89296 -7.54941,0 -7.54941,0 -7.06235,0 -6.81883,0 -8.03647,0 -7.06235,0 -8.03647,0 -6.81883,0 -7.54941,0 -7.54941,0 -7.79294,0 -6.57529,0 -8.28,0 -7.30589,-1.08486 -7.54941,1.08486 -4.14,0 -9.9847,0 -7.06236,0 -8.28,-0.36162 -7.30588,0 -7.54941,0 -7.30588,0 -7.30589,-0.36162 -7.79294,-0.36162 -3.65294,1.44648 -7.305881,-0.36162 -3.409411,0 -5.114118,0 -23.865882,0 -5.114118,-0.36162 z"
                 inkscape:connector-curvature="0"
                 id="path322"
                 style="fill:#ff2f00;fill-opacity:1;fill-rule:nonzero;stroke:none" /></g></g></g></g></g><g
       id="g324" /><g
       id="g326"><g
         clip-path="url(#clipPath330)"
         id="g328"><g
           id="g334"><g
             id="g336"><g
               clip-path="url(#clipPath340)"
               id="g338"><path
                 d="m 58.608,522.07038 0,0 5.114118,0.36162 23.865882,0 5.114118,0 3.409411,0 7.305881,0.36162 3.65294,-1.44648 7.79294,0.36162 7.30589,0.36162 7.30588,0 7.54941,0 7.30588,0 8.28,0.36162 7.06236,0 9.9847,0 4.14,0 7.54941,-1.08486 7.30589,1.08486 8.28,0 6.57529,0 7.79294,0 7.54941,0 7.54941,0 6.81883,0 8.03647,0 7.06235,0 8.03647,0 6.81883,0 7.06235,0 7.54941,0 7.54941,0 7.30588,-2.89296 8.28,-1.44648 6.5753,-2.16972 7.54941,-3.25458 7.79294,-14.4648 7.54941,-12.6567 7.79294,-12.29508 6.81883,-10.48698 7.06235,-30.37608 7.06235,-12.6567 8.03647,-16.63452 8.52353,-17.71938 5.84471,-9.40212 8.28,-16.63452 6.81882,-12.6567 7.30589,-12.6567 7.54941,-12.6567 9.01059,-17.71938 6.57529,-7.2324 6.57529,-7.2324 7.06236,-7.95564 7.30588,-9.40212 8.28,-9.76374 8.03647,-8.67888 8.76706,-2.53134 6.81882,-11.57184 13.39412,-10.12536 6.81882,-5.4243 8.52353,-9.0405 6.81883,-2.53134 6.81882,-3.6162 8.52353,-2.53134 6.81882,-4.33944 6.81883,-1.08486 15.34235,-7.2324 8.52353,-3.6162 0,43.75602 0,0 -8.52353,9.40212 -15.34235,10.8486 -6.81883,4.33944 -6.81882,7.59402 -8.52353,5.4243 -6.81882,7.59402 -6.81883,5.4243 -8.52353,16.63452 -6.81882,10.8486 -13.39412,18.44262 -6.81882,16.63452 -8.76706,7.2324 -8.03647,13.01832 -8.28,26.03664 -7.30588,12.6567 -7.06236,11.21022 -6.57529,7.95564 -6.57529,8.67888 -9.01059,23.14368 -7.54941,12.29508 -7.30589,9.76374 -6.81882,13.01832 -8.28,7.2324 -5.84471,3.25458 -8.52353,5.78592 -8.03647,6.14754 -7.06235,1.44648 -7.06235,1.08486 -6.81883,0.72324 -7.79294,0.72324 -7.54941,1.44648 -7.79294,2.89296 -7.54941,0 -6.5753,0 -8.28,0 -7.30588,0 -7.54941,0 -7.54941,0 -7.06235,0 -6.81883,0 -8.03647,0 -7.06235,0 -8.03647,0 -6.81883,0 -7.54941,0 -7.54941,0 -7.79294,0 -6.57529,0 -8.28,0 -7.30589,-1.08486 -7.54941,1.08486 -4.14,0 -9.9847,0 -7.06236,0 -8.28,-0.36162 -7.30588,0 -7.54941,0 -7.30588,0 -7.30589,-0.36162 -7.79294,-0.36162 -3.65294,1.44648 -7.305881,-0.36162 -3.409411,0 -5.114118,0 -23.865882,0 -5.114118,-0.36162 z"
                 inkscape:connector-curvature="0"
                 id="path344"
                 style="fill:#d80000;fill-opacity:1;fill-rule:nonzero;stroke:none" /></g></g></g></g></g><g
       id="g346" /><g
       id="g348"><g
         clip-path="url(#clipPath352)"
         id="g350"><g
           id="g356"><g
             id="g358"><g
               clip-path="url(#clipPath362)"
               id="g360"><path
                 d="m 58.608,522.07038 0,0 5.114118,0.36162 23.865882,0 5.114118,0 3.409411,0 7.305881,0.36162 3.65294,-1.44648 7.79294,0.36162 7.30589,0.36162 7.30588,0 7.54941,0 7.30588,0 8.28,0.36162 7.06236,0 9.9847,0 4.14,0 7.54941,-1.08486 7.30589,1.08486 8.28,0 6.57529,0 7.79294,0 7.54941,0 7.54941,0 6.81883,0 8.03647,0 7.06235,0 8.03647,0 6.81883,0 7.06235,0 7.54941,0 7.54941,0 7.30588,0 8.28,0 6.5753,0 7.54941,0 7.79294,-2.89296 7.54941,-1.44648 7.79294,-0.72324 6.81883,-0.72324 7.06235,-1.08486 7.06235,-1.44648 8.03647,-6.14754 8.52353,-5.78592 5.84471,-3.25458 8.28,-7.2324 6.81882,-13.01832 7.30589,-9.76374 7.54941,-12.29508 9.01059,-23.14368 6.57529,-8.67888 6.57529,-7.95564 7.06236,-11.21022 7.30588,-12.6567 8.28,-26.03664 8.03647,-13.01832 8.76706,-7.2324 6.81882,-16.63452 13.39412,-18.44262 6.81882,-10.8486 8.52353,-16.63452 6.81883,-5.4243 6.81882,-7.59402 8.52353,-5.4243 6.81882,-7.59402 6.81883,-4.33944 15.34235,-10.8486 8.52353,-9.40212 0,54.96624 0,0 -8.52353,11.93346 -15.34235,16.63452 -6.81883,6.50916 -6.81882,9.40212 -8.52353,8.31726 -6.81882,9.0405 -6.81883,7.2324 -8.52353,16.99614 -6.81882,12.29508 -13.39412,18.081 -6.81882,13.37994 -8.76706,6.87078 -8.03647,10.8486 -8.28,24.95178 -7.30588,10.12536 -7.06236,7.59402 -6.57529,5.06268 -6.57529,5.4243 -9.01059,14.10318 -7.54941,10.8486 -7.30589,2.89296 -6.81882,5.4243 -8.28,0 -5.84471,0 -8.52353,0 -8.03647,0 -7.06235,0.36162 -7.06235,-0.36162 -6.81883,0 -7.79294,0 -7.54941,0 -7.79294,0 -7.54941,0 -6.5753,0 -8.28,0 -7.30588,0 -7.54941,0 -7.54941,0 -7.06235,0 -6.81883,0 -8.03647,0 -7.06235,0 -8.03647,0 -6.81883,0 -7.54941,0 -7.54941,0 -7.79294,0 -6.57529,0 -8.28,0 -7.30589,-1.08486 -7.54941,1.08486 -4.14,0 -9.9847,0 -7.06236,0 -8.28,-0.36162 -7.30588,0 -7.54941,0 -7.30588,0 -7.30589,-0.36162 -7.79294,-0.36162 -3.65294,1.44648 -7.305881,-0.36162 -3.409411,0 -5.114118,0 -23.865882,0 -5.114118,-0.36162 z"
                 inkscape:connector-curvature="0"
                 id="path366"
                 style="fill:#8b0000;fill-opacity:1;fill-rule:nonzero;stroke:none" /></g></g></g></g></g><g
       id="g368" /><g
       id="g370"><g
         clip-path="url(#clipPath374)"
         id="g372"><g
           id="g378"><g
             id="g380"><g
               clip-path="url(#clipPath384)"
               id="g382"><path
                 d="m 58.608,522.07038 0,0 5.114118,0.36162 23.865882,0 5.114118,0 3.409411,0 7.305881,0.36162 3.65294,-1.44648 7.79294,0.36162 7.30589,0.36162 7.30588,0 7.54941,0 7.30588,0 8.28,0.36162 7.06236,0 9.9847,0 4.14,0 7.54941,-1.08486 7.30589,1.08486 8.28,0 6.57529,0 7.79294,0 7.54941,0 7.54941,0 6.81883,0 8.03647,0 7.06235,0 8.03647,0 6.81883,0 7.06235,0 7.54941,0 7.54941,0 7.30588,0 8.28,0 6.5753,0 7.54941,0 7.79294,0 7.54941,0 7.79294,0 6.81883,0 7.06235,0.36162 7.06235,-0.36162 8.03647,0 8.52353,0 5.84471,0 8.28,0 6.81882,-5.4243 7.30589,-2.89296 7.54941,-10.8486 9.01059,-14.10318 6.57529,-5.4243 6.57529,-5.06268 7.06236,-7.59402 7.30588,-10.12536 8.28,-24.95178 8.03647,-10.8486 8.76706,-6.87078 6.81882,-13.37994 13.39412,-18.081 6.81882,-12.29508 8.52353,-16.99614 6.81883,-7.2324 6.81882,-9.0405 8.52353,-8.31726 6.81882,-9.40212 6.81883,-6.50916 15.34235,-16.63452 8.52353,-11.93346 0,16.2729 0,0 -8.52353,12.6567 -15.34235,18.44262 -6.81883,7.59402 -6.81882,9.76374 -8.52353,9.40212 -6.81882,10.48698 -6.81883,7.95564 -8.52353,18.80424 -6.81882,13.37994 -13.39412,20.61234 -6.81882,13.01832 -8.76706,10.8486 -8.03647,15.54966 -8.28,18.44262 -7.30588,11.57184 -7.06236,10.12536 -6.57529,2.53134 -6.57529,1.44648 -9.01059,1.08486 -7.54941,3.97782 -7.30589,0 -6.81882,0 -8.28,0 -5.84471,0 -8.52353,0 -8.03647,0 -7.06235,0.36162 -7.06235,-0.36162 -6.81883,0 -7.79294,0 -7.54941,0 -7.79294,0 -7.54941,0 -6.5753,0 -8.28,0 -7.30588,0 -7.54941,0 -7.54941,0 -7.06235,0 -6.81883,0 -8.03647,0 -7.06235,0 -8.03647,0 -6.81883,0 -7.54941,0 -7.54941,0 -7.79294,0 -6.57529,0 -8.28,0 -7.30589,-1.08486 -7.54941,1.08486 -4.14,0 -9.9847,0 -7.06236,0 -8.28,-0.36162 -7.30588,0 -7.54941,0 -7.30588,0 -7.30589,-0.36162 -7.79294,-0.36162 -3.65294,1.44648 -7.305881,-0.36162 -3.409411,0 -5.114118,0 -23.865882,0 -5.114118,-0.36162 z"
                 inkscape:connector-curvature="0"
                 id="path388"
                 style="fill:#80006e;fill-opacity:1;fill-rule:nonzero;stroke:none" /></g></g></g></g></g><g
       id="g390" /><g
       id="g392"><g
         clip-path="url(#clipPath396)"
         id="g394"><g
           id="g400"><g
             id="g402"><g
               clip-path="url(#clipPath406)"
               id="g404"><path
                 d="m 58.608,522.07038 0,0 5.114118,0.36162 23.865882,0 5.114118,0 3.409411,0 7.305881,0.36162 3.65294,-1.44648 7.79294,0.36162 7.30589,0.36162 7.30588,0 7.54941,0 7.30588,0 8.28,0.36162 7.06236,0 9.9847,0 4.14,0 7.54941,-1.08486 7.30589,1.08486 8.28,0 6.57529,0 7.79294,0 7.54941,0 7.54941,0 6.81883,0 8.03647,0 7.06235,0 8.03647,0 6.81883,0 7.06235,0 7.54941,0 7.54941,0 7.30588,0 8.28,0 6.5753,0 7.54941,0 7.79294,0 7.54941,0 7.79294,0 6.81883,0 7.06235,0.36162 7.06235,-0.36162 8.03647,0 8.52353,0 5.84471,0 8.28,0 6.81882,0 7.30589,0 7.54941,-3.97782 9.01059,-1.08486 6.57529,-1.44648 6.57529,-2.53134 7.06236,-10.12536 7.30588,-11.57184 8.28,-18.44262 8.03647,-15.54966 8.76706,-10.8486 6.81882,-13.01832 13.39412,-20.61234 6.81882,-13.37994 8.52353,-18.80424 6.81883,-7.95564 6.81882,-10.48698 8.52353,-9.40212 6.81882,-9.76374 6.81883,-7.59402 15.34235,-18.44262 8.52353,-12.6567 0,141.75504 0,0 -8.52353,13.01832 -15.34235,18.081 -6.81883,9.76374 -6.81882,15.54966 -8.52353,7.59402 -6.81882,6.14754 -6.81883,5.78592 -8.52353,0 -6.81882,0 -13.39412,0 -6.81882,0 -8.76706,0 -8.03647,0 -8.28,0 -7.30588,0 -7.06236,0 -6.57529,0 -6.57529,0 -9.01059,0 -7.54941,0 -7.30589,0 -6.81882,0 -8.28,0 -5.84471,0 -8.52353,0 -8.03647,0 -7.06235,0.36162 -7.06235,-0.36162 -6.81883,0 -7.79294,0 -7.54941,0 -7.79294,0 -7.54941,0 -6.5753,0 -8.28,0 -7.30588,0 -7.54941,0 -7.54941,0 -7.06235,0 -6.81883,0 -8.03647,0 -7.06235,0 -8.03647,0 -6.81883,0 -7.54941,0 -7.54941,0 -7.79294,0 -6.57529,0 -8.28,0 -7.30589,-1.08486 -7.54941,1.08486 -4.14,0 -9.9847,0 -7.06236,0 -8.28,-0.36162 -7.30588,0 -7.54941,0 -7.30588,0 -7.30589,-0.36162 -7.79294,-0.36162 -3.65294,1.44648 -7.305881,-0.36162 -3.409411,0 -5.114118,0 -23.865882,0 -5.114118,-0.36162 z"
                 inkscape:connector-curvature="0"
                 id="path410"
                 style="fill:#c49ac4;fill-opacity:1;fill-rule:nonzero;stroke:none" /></g></g></g></g></g><g
       id="g412" /><g
       id="g414"><g
         clip-path="url(#clipPath418)"
         id="g416"><g
           id="g422"><g
             id="g424"><g
               clip-path="url(#clipPath428)"
               id="g426"><path
                 d="m 58.608,522.07038 0,0 5.114118,0.36162 23.865882,0 5.114118,0 3.409411,0 7.305881,0.36162 3.65294,-1.44648 7.79294,0.36162 7.30589,0.36162 7.30588,0 7.54941,0 7.30588,0 8.28,0.36162 7.06236,0 9.9847,0 4.14,0 7.54941,-1.08486 7.30589,1.08486 8.28,0 6.57529,0 7.79294,0 7.54941,0 7.54941,0 6.81883,0 8.03647,0 7.06235,0 8.03647,0 6.81883,0 7.06235,0 7.54941,0 7.54941,0 7.30588,0 8.28,0 6.5753,0 7.54941,0 7.79294,0 7.54941,0 7.79294,0 6.81883,0 7.06235,0.36162 7.06235,-0.36162 8.03647,0 8.52353,0 5.84471,0 8.28,0 6.81882,0 7.30589,0 7.54941,0 9.01059,0 6.57529,0 6.57529,0 7.06236,0 7.30588,0 8.28,0 8.03647,0 8.76706,0 6.81882,0 13.39412,0 6.81882,0 8.52353,0 6.81883,-5.78592 6.81882,-6.14754 8.52353,-7.59402 6.81882,-15.54966 6.81883,-9.76374 15.34235,-18.081 8.52353,-13.01832 0,0 0,0 -8.52353,13.01832 -15.34235,18.081 -6.81883,9.76374 -6.81882,15.54966 -8.52353,7.59402 -6.81882,6.14754 -6.81883,5.78592 -8.52353,0 -6.81882,0 -13.39412,0 -6.81882,0 -8.76706,0 -8.03647,0 -8.28,0 -7.30588,0 -7.06236,0 -6.57529,0 -6.57529,0 -9.01059,0 -7.54941,0 -7.30589,0 -6.81882,0 -8.28,0 -5.84471,0 -8.52353,0 -8.03647,0 -7.06235,0.36162 -7.06235,-0.36162 -6.81883,0 -7.79294,0 -7.54941,0 -7.79294,0 -7.54941,0 -6.5753,0 -8.28,0 -7.30588,0 -7.54941,0 -7.54941,0 -7.06235,0 -6.81883,0 -8.03647,0 -7.06235,0 -8.03647,0 -6.81883,0 -7.54941,0 -7.54941,0 -7.79294,0 -6.57529,0 -8.28,0 -7.30589,-1.08486 -7.54941,1.08486 -4.14,0 -9.9847,0 -7.06236,0 -8.28,-0.36162 -7.30588,0 -7.54941,0 -7.30588,0 -7.30589,-0.36162 -7.79294,-0.36162 -3.65294,1.44648 -7.305881,-0.36162 -3.409411,0 -5.114118,0 -23.865882,0 -5.114118,-0.36162 z"
                 inkscape:connector-curvature="0"
                 id="path432"
                 style="fill:#fe1792;fill-opacity:1;fill-rule:nonzero;stroke:none" /></g></g></g></g></g><g
       id="g434" /><g
       id="g436"><g
         clip-path="url(#clipPath440)"
         id="g438"><g
           id="g444"><g
             id="g446"><g
               clip-path="url(#clipPath450)"
               id="g448"><path
                 d="m 58.608,522.07038 0,0 5.114118,0.36162 23.865882,0 5.114118,0 3.409411,0 7.305881,0.36162 3.65294,-1.44648 7.79294,0.36162 7.30589,0.36162 7.30588,0 7.54941,0 7.30588,0 8.28,0.36162 7.06236,0 9.9847,0 4.14,0 7.54941,-1.08486 7.30589,1.08486 8.28,0 6.57529,0 7.79294,0 7.54941,0 7.54941,0 6.81883,0 8.03647,0 7.06235,0 8.03647,0 6.81883,0 7.06235,0 7.54941,0 7.54941,0 7.30588,0 8.28,0 6.5753,0 7.54941,0 7.79294,0 7.54941,0 7.79294,0 6.81883,0 7.06235,0.36162 7.06235,-0.36162 8.03647,0 8.52353,0 5.84471,0 8.28,0 6.81882,0 7.30589,0 7.54941,0 9.01059,0 6.57529,0 6.57529,0 7.06236,0 7.30588,0 8.28,0 8.03647,0 8.76706,0 6.81882,0 13.39412,0 6.81882,0 8.52353,0 6.81883,-5.78592 6.81882,-6.14754 8.52353,-7.59402 6.81882,-15.54966 6.81883,-9.76374 15.34235,-18.081 8.52353,-13.01832 0,57.49758 0,0 -8.52353,11.57184 -15.34235,3.97782 -6.81883,0.36162 -6.81882,1.08486 -8.52353,1.44648 -6.81882,0 -6.81883,0 -8.52353,0 -6.81882,0 -13.39412,0 -6.81882,0 -8.76706,0 -8.03647,0 -8.28,0 -7.30588,0 -7.06236,0 -6.57529,0 -6.57529,0 -9.01059,0 -7.54941,0 -7.30589,0 -6.81882,0 -8.28,0 -5.84471,0 -8.52353,0 -8.03647,0 -7.06235,0.36162 -7.06235,-0.36162 -6.81883,0 -7.79294,0 -7.54941,0 -7.79294,0 -7.54941,0 -6.5753,0 -8.28,0 -7.30588,0 -7.54941,0 -7.54941,0 -7.06235,0 -6.81883,0 -8.03647,0 -7.06235,0 -8.03647,0 -6.81883,0 -7.54941,0 -7.54941,0 -7.79294,0 -6.57529,0 -8.28,0 -7.30589,-1.08486 -7.54941,1.08486 -4.14,0 -9.9847,0 -7.06236,0 -8.28,-0.36162 -7.30588,0 -7.54941,0 -7.30588,0 -7.30589,-0.36162 -7.79294,-0.36162 -3.65294,1.44648 -7.305881,-0.36162 -3.409411,0 -5.114118,0 -23.865882,0 -5.114118,-0.36162 z"
                 inkscape:connector-curvature="0"
                 id="path454"
                 style="fill:#008080;fill-opacity:1;fill-rule:nonzero;stroke:none" /></g></g></g></g></g><g
       id="g456" /><g
       id="g458"><g
         clip-path="url(#clipPath462)"
         id="g460"><g
           id="g466"><g
             id="g468"><g
               clip-path="url(#clipPath472)"
               id="g470"><path
                 d="m 58.608,522.07038 0,0 5.114118,0.36162 23.865882,0 5.114118,0 3.409411,0 7.305881,0.36162 3.65294,-1.44648 7.79294,0.36162 7.30589,0.36162 7.30588,0 7.54941,0 7.30588,0 8.28,0.36162 7.06236,0 9.9847,0 4.14,0 7.54941,-1.08486 7.30589,1.08486 8.28,0 6.57529,0 7.79294,0 7.54941,0 7.54941,0 6.81883,0 8.03647,0 7.06235,0 8.03647,0 6.81883,0 7.06235,0 7.54941,0 7.54941,0 7.30588,0 8.28,0 6.5753,0 7.54941,0 7.79294,0 7.54941,0 7.79294,0 6.81883,0 7.06235,0.36162 7.06235,-0.36162 8.03647,0 8.52353,0 5.84471,0 8.28,0 6.81882,0 7.30589,0 7.54941,0 9.01059,0 6.57529,0 6.57529,0 7.06236,0 7.30588,0 8.28,0 8.03647,0 8.76706,0 6.81882,0 13.39412,0 6.81882,0 8.52353,0 6.81883,0 6.81882,0 8.52353,-1.44648 6.81882,-1.08486 6.81883,-0.36162 15.34235,-3.97782 8.52353,-11.57184 0,18.44262 0,0 -8.52353,2.53134 -15.34235,-2.53134 -6.81883,0 -6.81882,0 -8.52353,0 -6.81882,0 -6.81883,0 -8.52353,0 -6.81882,0 -13.39412,0 -6.81882,0 -8.76706,0 -8.03647,0 -8.28,0 -7.30588,0 -7.06236,0 -6.57529,0 -6.57529,0 -9.01059,0 -7.54941,0 -7.30589,0 -6.81882,0 -8.28,0 -5.84471,0 -8.52353,0 -8.03647,0 -7.06235,0.36162 -7.06235,-0.36162 -6.81883,0 -7.79294,0 -7.54941,0 -7.79294,0 -7.54941,0 -6.5753,0 -8.28,0 -7.30588,0 -7.54941,0 -7.54941,0 -7.06235,0 -6.81883,0 -8.03647,0 -7.06235,0 -8.03647,0 -6.81883,0 -7.54941,0 -7.54941,0 -7.79294,0 -6.57529,0 -8.28,0 -7.30589,-1.08486 -7.54941,1.08486 -4.14,0 -9.9847,0 -7.06236,0 -8.28,-0.36162 -7.30588,0 -7.54941,0 -7.30588,0 -7.30589,-0.36162 -7.79294,-0.36162 -3.65294,1.44648 -7.305881,-0.36162 -3.409411,0 -5.114118,0 -23.865882,0 -5.114118,-0.36162 z"
                 inkscape:connector-curvature="0"
                 id="path476"
                 style="fill:#000080;fill-opacity:1;fill-rule:nonzero;stroke:none" /></g></g></g></g></g><path
       d="m 62.991529,160.812 0,4"
       inkscape:connector-curvature="0"
       id="path478"
       style="fill:#000000;fill-opacity:1;fill-rule:nonzero;stroke:#000000;stroke-width:0.5;stroke-linecap:butt;stroke-linejoin:round;stroke-miterlimit:10;stroke-opacity:1;stroke-dasharray:none" /><path
       d="m 62.991529,522.432 0,-4"
       inkscape:connector-curvature="0"
       id="path480"
       style="fill:#000000;fill-opacity:1;fill-rule:nonzero;stroke:#000000;stroke-width:0.5;stroke-linecap:butt;stroke-linejoin:round;stroke-miterlimit:10;stroke-opacity:1;stroke-dasharray:none" /><text
       transform="matrix(0.8660254,0.5,0.5,-0.8660254,36.721514,134.46421)"
       id="text482"><tspan
         x="0 7.8179998 15.636 23.454"
         y="0"
         id="tspan484"
         style="font-size:12px;font-variant:normal;font-weight:normal;writing-mode:lr-tb;fill:#000000;fill-opacity:1;fill-rule:nonzero;stroke:none;font-family:DejaVu Sans;-inkscape-font-specification:DejaVuSans">2010</tspan></text>
<path
       d="m 151.87976,160.812 0,4"
       inkscape:connector-curvature="0"
       id="path486"
       style="fill:#000000;fill-opacity:1;fill-rule:nonzero;stroke:#000000;stroke-width:0.5;stroke-linecap:butt;stroke-linejoin:round;stroke-miterlimit:10;stroke-opacity:1;stroke-dasharray:none" /><path
       d="m 151.87976,522.432 0,-4"
       inkscape:connector-curvature="0"
       id="path488"
       style="fill:#000000;fill-opacity:1;fill-rule:nonzero;stroke:#000000;stroke-width:0.5;stroke-linecap:butt;stroke-linejoin:round;stroke-miterlimit:10;stroke-opacity:1;stroke-dasharray:none" /><text
       transform="matrix(0.8660254,0.5,0.5,-0.8660254,125.88038,134.62046)"
       id="text490"><tspan
         x="0 7.8179998 15.636 23.454"
         y="0"
         id="tspan492"
         style="font-size:12px;font-variant:normal;font-weight:normal;writing-mode:lr-tb;fill:#000000;fill-opacity:1;fill-rule:nonzero;stroke:none;font-family:DejaVu Sans;-inkscape-font-specification:DejaVuSans">2011</tspan></text>
<path
       d="m 240.768,160.812 0,4"
       inkscape:connector-curvature="0"
       id="path494"
       style="fill:#000000;fill-opacity:1;fill-rule:nonzero;stroke:#000000;stroke-width:0.5;stroke-linecap:butt;stroke-linejoin:round;stroke-miterlimit:10;stroke-opacity:1;stroke-dasharray:none" /><path
       d="m 240.768,522.432 0,-4"
       inkscape:connector-curvature="0"
       id="path496"
       style="fill:#000000;fill-opacity:1;fill-rule:nonzero;stroke:#000000;stroke-width:0.5;stroke-linecap:butt;stroke-linejoin:round;stroke-miterlimit:10;stroke-opacity:1;stroke-dasharray:none" /><text
       transform="matrix(0.8660254,0.5,0.5,-0.8660254,214.84981,134.66733)"
       id="text498"><tspan
         x="0 7.8179998 15.636 23.454"
         y="0"
         id="tspan500"
         style="font-size:12px;font-variant:normal;font-weight:normal;writing-mode:lr-tb;fill:#000000;fill-opacity:1;fill-rule:nonzero;stroke:none;font-family:DejaVu Sans;-inkscape-font-specification:DejaVuSans">2012</tspan></text>
<path
       d="m 329.89976,160.812 0,4"
       inkscape:connector-curvature="0"
       id="path502"
       style="fill:#000000;fill-opacity:1;fill-rule:nonzero;stroke:#000000;stroke-width:0.5;stroke-linecap:butt;stroke-linejoin:round;stroke-miterlimit:10;stroke-opacity:1;stroke-dasharray:none" /><path
       d="m 329.89976,522.432 0,-4"
       inkscape:connector-curvature="0"
       id="path504"
       style="fill:#000000;fill-opacity:1;fill-rule:nonzero;stroke:#000000;stroke-width:0.5;stroke-linecap:butt;stroke-linejoin:round;stroke-miterlimit:10;stroke-opacity:1;stroke-dasharray:none" /><text
       transform="matrix(0.8660254,0.5,0.5,-0.8660254,303.7786,134.55014)"
       id="text506"><tspan
         x="0 7.8179998 15.636 23.454"
         y="0"
         id="tspan508"
         style="font-size:12px;font-variant:normal;font-weight:normal;writing-mode:lr-tb;fill:#000000;fill-opacity:1;fill-rule:nonzero;stroke:none;font-family:DejaVu Sans;-inkscape-font-specification:DejaVuSans">2013</tspan></text>
<path
       d="m 418.788,160.812 0,4"
       inkscape:connector-curvature="0"
       id="path510"
       style="fill:#000000;fill-opacity:1;fill-rule:nonzero;stroke:#000000;stroke-width:0.5;stroke-linecap:butt;stroke-linejoin:round;stroke-miterlimit:10;stroke-opacity:1;stroke-dasharray:none" /><path
       d="m 418.788,522.432 0,-4"
       inkscape:connector-curvature="0"
       id="path512"
       style="fill:#000000;fill-opacity:1;fill-rule:nonzero;stroke:#000000;stroke-width:0.5;stroke-linecap:butt;stroke-linejoin:round;stroke-miterlimit:10;stroke-opacity:1;stroke-dasharray:none" /><text
       transform="matrix(0.8660254,0.5,0.5,-0.8660254,392.40973,134.40171)"
       id="text514"><tspan
         x="0 7.8179998 15.636 23.454"
         y="0"
         id="tspan516"
         style="font-size:12px;font-variant:normal;font-weight:normal;writing-mode:lr-tb;fill:#000000;fill-opacity:1;fill-rule:nonzero;stroke:none;font-family:DejaVu Sans;-inkscape-font-specification:DejaVuSans">2014</tspan></text>
<path
       d="m 507.67624,160.812 0,4"
       inkscape:connector-curvature="0"
       id="path518"
       style="fill:#000000;fill-opacity:1;fill-rule:nonzero;stroke:#000000;stroke-width:0.5;stroke-linecap:butt;stroke-linejoin:round;stroke-miterlimit:10;stroke-opacity:1;stroke-dasharray:none" /><path
       d="m 507.67624,522.432 0,-4"
       inkscape:connector-curvature="0"
       id="path520"
       style="fill:#000000;fill-opacity:1;fill-rule:nonzero;stroke:#000000;stroke-width:0.5;stroke-linecap:butt;stroke-linejoin:round;stroke-miterlimit:10;stroke-opacity:1;stroke-dasharray:none" /><text
       transform="matrix(0.8660254,0.5,0.5,-0.8660254,481.62273,134.58921)"
       id="text522"><tspan
         x="0 7.8179998 15.636 23.454"
         y="0"
         id="tspan524"
         style="font-size:12px;font-variant:normal;font-weight:normal;writing-mode:lr-tb;fill:#000000;fill-opacity:1;fill-rule:nonzero;stroke:none;font-family:DejaVu Sans;-inkscape-font-specification:DejaVuSans">2015</tspan></text>
<path
       d="m 58.608,160.812 4,0"
       inkscape:connector-curvature="0"
       id="path526"
       style="fill:#000000;fill-opacity:1;fill-rule:nonzero;stroke:#000000;stroke-width:0.5;stroke-linecap:butt;stroke-linejoin:round;stroke-miterlimit:10;stroke-opacity:1;stroke-dasharray:none" /><path
       d="m 571.968,160.812 -4,0"
       inkscape:connector-curvature="0"
       id="path528"
       style="fill:#000000;fill-opacity:1;fill-rule:nonzero;stroke:#000000;stroke-width:0.5;stroke-linecap:butt;stroke-linejoin:round;stroke-miterlimit:10;stroke-opacity:1;stroke-dasharray:none" /><text
       transform="matrix(1,0,0,-1,37.108,157.4995)"
       id="text530"><tspan
         x="0 7.8179998 11.724"
         y="0"
         id="tspan532"
         style="font-size:12px;font-variant:normal;font-weight:normal;writing-mode:lr-tb;fill:#000000;fill-opacity:1;fill-rule:nonzero;stroke:none;font-family:DejaVu Sans;-inkscape-font-specification:DejaVuSans">0.0</tspan></text>
<path
       d="m 58.608,233.136 4,0"
       inkscape:connector-curvature="0"
       id="path534"
       style="fill:#000000;fill-opacity:1;fill-rule:nonzero;stroke:#000000;stroke-width:0.5;stroke-linecap:butt;stroke-linejoin:round;stroke-miterlimit:10;stroke-opacity:1;stroke-dasharray:none" /><path
       d="m 571.968,233.136 -4,0"
       inkscape:connector-curvature="0"
       id="path536"
       style="fill:#000000;fill-opacity:1;fill-rule:nonzero;stroke:#000000;stroke-width:0.5;stroke-linecap:butt;stroke-linejoin:round;stroke-miterlimit:10;stroke-opacity:1;stroke-dasharray:none" /><text
       transform="matrix(1,0,0,-1,37.51425,229.8235)"
       id="text538"><tspan
         x="0 7.8179998 11.724"
         y="0"
         id="tspan540"
         style="font-size:12px;font-variant:normal;font-weight:normal;writing-mode:lr-tb;fill:#000000;fill-opacity:1;fill-rule:nonzero;stroke:none;font-family:DejaVu Sans;-inkscape-font-specification:DejaVuSans">0.2</tspan></text>
<path
       d="m 58.608,305.46 4,0"
       inkscape:connector-curvature="0"
       id="path542"
       style="fill:#000000;fill-opacity:1;fill-rule:nonzero;stroke:#000000;stroke-width:0.5;stroke-linecap:butt;stroke-linejoin:round;stroke-miterlimit:10;stroke-opacity:1;stroke-dasharray:none" /><path
       d="m 571.968,305.46 -4,0"
       inkscape:connector-curvature="0"
       id="path544"
       style="fill:#000000;fill-opacity:1;fill-rule:nonzero;stroke:#000000;stroke-width:0.5;stroke-linecap:butt;stroke-linejoin:round;stroke-miterlimit:10;stroke-opacity:1;stroke-dasharray:none" /><text
       transform="matrix(1,0,0,-1,36.983,302.1475)"
       id="text546"><tspan
         x="0 7.8179998 11.724"
         y="0"
         id="tspan548"
         style="font-size:12px;font-variant:normal;font-weight:normal;writing-mode:lr-tb;fill:#000000;fill-opacity:1;fill-rule:nonzero;stroke:none;font-family:DejaVu Sans;-inkscape-font-specification:DejaVuSans">0.4</tspan></text>
<path
       d="m 58.608,377.784 4,0"
       inkscape:connector-curvature="0"
       id="path550"
       style="fill:#000000;fill-opacity:1;fill-rule:nonzero;stroke:#000000;stroke-width:0.5;stroke-linecap:butt;stroke-linejoin:round;stroke-miterlimit:10;stroke-opacity:1;stroke-dasharray:none" /><path
       d="m 571.968,377.784 -4,0"
       inkscape:connector-curvature="0"
       id="path552"
       style="fill:#000000;fill-opacity:1;fill-rule:nonzero;stroke:#000000;stroke-width:0.5;stroke-linecap:butt;stroke-linejoin:round;stroke-miterlimit:10;stroke-opacity:1;stroke-dasharray:none" /><text
       transform="matrix(1,0,0,-1,37.07675,374.4715)"
       id="text554"><tspan
         x="0 7.8179998 11.724"
         y="0"
         id="tspan556"
         style="font-size:12px;font-variant:normal;font-weight:normal;writing-mode:lr-tb;fill:#000000;fill-opacity:1;fill-rule:nonzero;stroke:none;font-family:DejaVu Sans;-inkscape-font-specification:DejaVuSans">0.6</tspan></text>
<path
       d="m 58.608,450.108 4,0"
       inkscape:connector-curvature="0"
       id="path558"
       style="fill:#000000;fill-opacity:1;fill-rule:nonzero;stroke:#000000;stroke-width:0.5;stroke-linecap:butt;stroke-linejoin:round;stroke-miterlimit:10;stroke-opacity:1;stroke-dasharray:none" /><path
       d="m 571.968,450.108 -4,0"
       inkscape:connector-curvature="0"
       id="path560"
       style="fill:#000000;fill-opacity:1;fill-rule:nonzero;stroke:#000000;stroke-width:0.5;stroke-linecap:butt;stroke-linejoin:round;stroke-miterlimit:10;stroke-opacity:1;stroke-dasharray:none" /><text
       transform="matrix(1,0,0,-1,37.13925,446.7955)"
       id="text562"><tspan
         x="0 7.8179998 11.724"
         y="0"
         id="tspan564"
         style="font-size:12px;font-variant:normal;font-weight:normal;writing-mode:lr-tb;fill:#000000;fill-opacity:1;fill-rule:nonzero;stroke:none;font-family:DejaVu Sans;-inkscape-font-specification:DejaVuSans">0.8</tspan></text>
<path
       d="m 58.608,522.432 4,0"
       inkscape:connector-curvature="0"
       id="path566"
       style="fill:#000000;fill-opacity:1;fill-rule:nonzero;stroke:#000000;stroke-width:0.5;stroke-linecap:butt;stroke-linejoin:round;stroke-miterlimit:10;stroke-opacity:1;stroke-dasharray:none" /><path
       d="m 571.968,522.432 -4,0"
       inkscape:connector-curvature="0"
       id="path568"
       style="fill:#000000;fill-opacity:1;fill-rule:nonzero;stroke:#000000;stroke-width:0.5;stroke-linecap:butt;stroke-linejoin:round;stroke-miterlimit:10;stroke-opacity:1;stroke-dasharray:none" /><text
       transform="matrix(1,0,0,-1,37.623625,519.1195)"
       id="text570"><tspan
         x="0 7.8179998 11.724"
         y="0"
         id="tspan572"
         style="font-size:12px;font-variant:normal;font-weight:normal;writing-mode:lr-tb;fill:#000000;fill-opacity:1;fill-rule:nonzero;stroke:none;font-family:DejaVu Sans;-inkscape-font-specification:DejaVuSans">1.0</tspan></text>
<text
       transform="matrix(0,1,1,0,29.483,311.76263)"
       id="text574"><tspan
         x="0 7.4099998 12.462 19.98 27.780001 35.298 40.349998 45.167999 48.582001 56.099998"
         y="0"
         id="tspan576"
         style="font-size:12px;font-variant:normal;font-weight:normal;writing-mode:lr-tb;fill:#000000;fill-opacity:1;fill-rule:nonzero;stroke:none;font-family:DejaVu Sans;-inkscape-font-specification:DejaVuSans">Proportion</tspan></text>
<path
       d="m 58.608,160.812 513.36,0"
       inkscape:connector-curvature="0"
       id="path578"
       style="fill:none;stroke:#000000;stroke-width:1;stroke-linecap:butt;stroke-linejoin:round;stroke-miterlimit:10;stroke-opacity:1;stroke-dasharray:none" /><path
       d="m 58.608,160.812 0,361.62"
       inkscape:connector-curvature="0"
       id="path580"
       style="fill:none;stroke:#000000;stroke-width:1;stroke-linecap:butt;stroke-linejoin:round;stroke-miterlimit:10;stroke-opacity:1;stroke-dasharray:none" /><path
       d="m 571.968,160.812 0,361.62"
       inkscape:connector-curvature="0"
       id="path582"
       style="fill:none;stroke:#000000;stroke-width:1;stroke-linecap:butt;stroke-linejoin:round;stroke-miterlimit:10;stroke-opacity:1;stroke-dasharray:none" /><path
       d="m 58.608,522.432 513.36,0"
       inkscape:connector-curvature="0"
       id="path584"
       style="fill:none;stroke:#000000;stroke-width:1;stroke-linecap:butt;stroke-linejoin:round;stroke-miterlimit:10;stroke-opacity:1;stroke-dasharray:none" /><text
       transform="matrix(1,0,0,-1,123.663,527.432)"
       id="text586"><tspan
         x="0 7.4099998 12.462 19.98 27.780001 35.298 40.349998 45.167999 48.582001 56.099998 63.888 67.793999 75.311996 79.638 83.543999 91.344002 98.903999 106.176 109.59 116.346 123.906 130.308 134.214 139.26601 147.054 154.842 162.63 166.04401 173.832 181.632 185.53799 193.338 196.752 201.078 205.40401 212.964 218.01601 225.576 233.364 238.18201 242.088 250.494 257.90399 261.52802 265.43399 272.70599 280.26599 285.31799 291.72 295.134 302.65201 310.44 316.84201 320.74799 328.30801 335.83801 342.59399 350.38199 354.28799 366.258 373.776 381.564 386.38199"
         y="0"
         id="tspan588"
         style="font-size:12px;font-variant:normal;font-weight:normal;writing-mode:lr-tb;fill:#000000;fill-opacity:1;fill-rule:nonzero;stroke:none;font-family:DejaVu Sans;-inkscape-font-specification:DejaVuSans">Proportion of devices running different API versions each month</tspan></text>
<path
       d="m 81.5755,72.954767 467.425,0 0,56.475003 -467.425,0 0,-56.475003 z"
       inkscape:connector-curvature="0"
       id="path590"
       style="fill:#ffffff;fill-opacity:1;fill-rule:nonzero;stroke:#000000;stroke-width:1;stroke-linecap:butt;stroke-linejoin:round;stroke-miterlimit:10;stroke-opacity:1;stroke-dasharray:none" /><path
       d="m 86.3755,115.50477 24,0 0,8.4 -24,0 0,-8.4 z"
       inkscape:connector-curvature="0"
       id="path592"
       style="fill:#000080;fill-opacity:1;fill-rule:nonzero;stroke:#000000;stroke-width:1;stroke-linecap:butt;stroke-linejoin:round;stroke-miterlimit:10;stroke-opacity:1;stroke-dasharray:none" /><text
       transform="matrix(1,0,0,-1,119.9755,115.50477)"
       id="text594"><tspan
         x="0"
         y="0"
         id="tspan596"
         style="font-size:12px;font-variant:normal;font-weight:normal;writing-mode:lr-tb;fill:#000000;fill-opacity:1;fill-rule:nonzero;stroke:none;font-family:DejaVu Sans;-inkscape-font-specification:DejaVuSans">2</tspan></text>
<path
       d="m 86.3755,97.879767 24,0 0,8.400003 -24,0 0,-8.400003 z"
       inkscape:connector-curvature="0"
       id="path598"
       style="fill:#0024ca;fill-opacity:1;fill-rule:nonzero;stroke:#000000;stroke-width:1;stroke-linecap:butt;stroke-linejoin:round;stroke-miterlimit:10;stroke-opacity:1;stroke-dasharray:none" /><text
       transform="matrix(1,0,0,-1,119.9755,97.879767)"
       id="text600"><tspan
         x="0"
         y="0"
         id="tspan602"
         style="font-size:12px;font-variant:normal;font-weight:normal;writing-mode:lr-tb;fill:#000000;fill-opacity:1;fill-rule:nonzero;stroke:none;font-family:DejaVu Sans;-inkscape-font-specification:DejaVuSans">3</tspan></text>
<path
       d="m 86.3755,80.254767 24,0 0,8.4 -24,0 0,-8.4 z"
       inkscape:connector-curvature="0"
       id="path604"
       style="fill:#0051ff;fill-opacity:1;fill-rule:nonzero;stroke:#000000;stroke-width:1;stroke-linecap:butt;stroke-linejoin:round;stroke-miterlimit:10;stroke-opacity:1;stroke-dasharray:none" /><text
       transform="matrix(1,0,0,-1,119.9755,80.254767)"
       id="text606"><tspan
         x="0"
         y="0"
         id="tspan608"
         style="font-size:12px;font-variant:normal;font-weight:normal;writing-mode:lr-tb;fill:#000000;fill-opacity:1;fill-rule:nonzero;stroke:none;font-family:DejaVu Sans;-inkscape-font-specification:DejaVuSans">4</tspan></text>
<path
       d="m 150.3505,115.50477 24,0 0,8.4 -24,0 0,-8.4 z"
       inkscape:connector-curvature="0"
       id="path610"
       style="fill:#0081ff;fill-opacity:1;fill-rule:nonzero;stroke:#000000;stroke-width:1;stroke-linecap:butt;stroke-linejoin:round;stroke-miterlimit:10;stroke-opacity:1;stroke-dasharray:none" /><text
       transform="matrix(1,0,0,-1,183.9505,115.50477)"
       id="text612"><tspan
         x="0"
         y="0"
         id="tspan614"
         style="font-size:12px;font-variant:normal;font-weight:normal;writing-mode:lr-tb;fill:#000000;fill-opacity:1;fill-rule:nonzero;stroke:none;font-family:DejaVu Sans;-inkscape-font-specification:DejaVuSans">5</tspan></text>
<path
       d="m 150.3505,97.879767 24,0 0,8.400003 -24,0 0,-8.400003 z"
       inkscape:connector-curvature="0"
       id="path616"
       style="fill:#00aeff;fill-opacity:1;fill-rule:nonzero;stroke:#000000;stroke-width:1;stroke-linecap:butt;stroke-linejoin:round;stroke-miterlimit:10;stroke-opacity:1;stroke-dasharray:none" /><text
       transform="matrix(1,0,0,-1,183.9505,97.879767)"
       id="text618"><tspan
         x="0"
         y="0"
         id="tspan620"
         style="font-size:12px;font-variant:normal;font-weight:normal;writing-mode:lr-tb;fill:#000000;fill-opacity:1;fill-rule:nonzero;stroke:none;font-family:DejaVu Sans;-inkscape-font-specification:DejaVuSans">6</tspan></text>
<path
       d="m 150.3505,80.254767 24,0 0,8.4 -24,0 0,-8.4 z"
       inkscape:connector-curvature="0"
       id="path622"
       style="fill:#00deff;fill-opacity:1;fill-rule:nonzero;stroke:#000000;stroke-width:1;stroke-linecap:butt;stroke-linejoin:round;stroke-miterlimit:10;stroke-opacity:1;stroke-dasharray:none" /><text
       transform="matrix(1,0,0,-1,183.9505,80.254767)"
       id="text624"><tspan
         x="0"
         y="0"
         id="tspan626"
         style="font-size:12px;font-variant:normal;font-weight:normal;writing-mode:lr-tb;fill:#000000;fill-opacity:1;fill-rule:nonzero;stroke:none;font-family:DejaVu Sans;-inkscape-font-specification:DejaVuSans">7</tspan></text>
<path
       d="m 213.98175,115.50477 24,0 0,8.4 -24,0 0,-8.4 z"
       inkscape:connector-curvature="0"
       id="path628"
       style="fill:#23ffd2;fill-opacity:1;fill-rule:nonzero;stroke:#000000;stroke-width:1;stroke-linecap:butt;stroke-linejoin:round;stroke-miterlimit:10;stroke-opacity:1;stroke-dasharray:none" /><text
       transform="matrix(1,0,0,-1,247.58175,115.50477)"
       id="text630"><tspan
         x="0"
         y="0"
         id="tspan632"
         style="font-size:12px;font-variant:normal;font-weight:normal;writing-mode:lr-tb;fill:#000000;fill-opacity:1;fill-rule:nonzero;stroke:none;font-family:DejaVu Sans;-inkscape-font-specification:DejaVuSans">8</tspan></text>
<path
       d="m 213.98175,97.879767 24,0 0,8.400003 -24,0 0,-8.400003 z"
       inkscape:connector-curvature="0"
       id="path634"
       style="fill:#5cff9a;fill-opacity:1;fill-rule:nonzero;stroke:#000000;stroke-width:1;stroke-linecap:butt;stroke-linejoin:round;stroke-miterlimit:10;stroke-opacity:1;stroke-dasharray:none" /><text
       transform="matrix(1,0,0,-1,247.58175,97.879767)"
       id="text636"><tspan
         x="0"
         y="0"
         id="tspan638"
         style="font-size:12px;font-variant:normal;font-weight:normal;writing-mode:lr-tb;fill:#000000;fill-opacity:1;fill-rule:nonzero;stroke:none;font-family:DejaVu Sans;-inkscape-font-specification:DejaVuSans">9</tspan></text>
<path
       d="m 213.98175,80.254767 24,0 0,8.4 -24,0 0,-8.4 z"
       inkscape:connector-curvature="0"
       id="path640"
       style="fill:#91ff66;fill-opacity:1;fill-rule:nonzero;stroke:#000000;stroke-width:1;stroke-linecap:butt;stroke-linejoin:round;stroke-miterlimit:10;stroke-opacity:1;stroke-dasharray:none" /><text
       transform="matrix(1,0,0,-1,247.58175,80.254767)"
       id="text642"><tspan
         x="0 7.8179998"
         y="0"
         id="tspan644"
         style="font-size:12px;font-variant:normal;font-weight:normal;writing-mode:lr-tb;fill:#000000;fill-opacity:1;fill-rule:nonzero;stroke:none;font-family:DejaVu Sans;-inkscape-font-specification:DejaVuSans">10</tspan></text>
<path
       d="m 284.75362,115.50477 24,0 0,8.4 -24,0 0,-8.4 z"
       inkscape:connector-curvature="0"
       id="path646"
       style="fill:#c9ff2e;fill-opacity:1;fill-rule:nonzero;stroke:#000000;stroke-width:1;stroke-linecap:butt;stroke-linejoin:round;stroke-miterlimit:10;stroke-opacity:1;stroke-dasharray:none" /><text
       transform="matrix(1,0,0,-1,318.35363,115.50477)"
       id="text648"><tspan
         x="0 7.8179998"
         y="0"
         id="tspan650"
         style="font-size:12px;font-variant:normal;font-weight:normal;writing-mode:lr-tb;fill:#000000;fill-opacity:1;fill-rule:nonzero;stroke:none;font-family:DejaVu Sans;-inkscape-font-specification:DejaVuSans">11</tspan></text>
<path
       d="m 284.75362,97.879767 24,0 0,8.400003 -24,0 0,-8.400003 z"
       inkscape:connector-curvature="0"
       id="path652"
       style="fill:#feed00;fill-opacity:1;fill-rule:nonzero;stroke:#000000;stroke-width:1;stroke-linecap:butt;stroke-linejoin:round;stroke-miterlimit:10;stroke-opacity:1;stroke-dasharray:none" /><text
       transform="matrix(1,0,0,-1,318.35363,97.879767)"
       id="text654"><tspan
         x="0 7.8179998"
         y="0"
         id="tspan656"
         style="font-size:12px;font-variant:normal;font-weight:normal;writing-mode:lr-tb;fill:#000000;fill-opacity:1;fill-rule:nonzero;stroke:none;font-family:DejaVu Sans;-inkscape-font-specification:DejaVuSans">12</tspan></text>
<path
       d="m 284.75362,80.254767 24,0 0,8.4 -24,0 0,-8.4 z"
       inkscape:connector-curvature="0"
       id="path658"
       style="fill:#ffac00;fill-opacity:1;fill-rule:nonzero;stroke:#000000;stroke-width:1;stroke-linecap:butt;stroke-linejoin:round;stroke-miterlimit:10;stroke-opacity:1;stroke-dasharray:none" /><text
       transform="matrix(1,0,0,-1,318.35363,80.254767)"
       id="text660"><tspan
         x="0 7.8179998"
         y="0"
         id="tspan662"
         style="font-size:12px;font-variant:normal;font-weight:normal;writing-mode:lr-tb;fill:#000000;fill-opacity:1;fill-rule:nonzero;stroke:none;font-family:DejaVu Sans;-inkscape-font-specification:DejaVuSans">13</tspan></text>
<path
       d="m 355.35363,115.50477 24,0 0,8.4 -24,0 0,-8.4 z"
       inkscape:connector-curvature="0"
       id="path664"
       style="fill:#ff7000;fill-opacity:1;fill-rule:nonzero;stroke:#000000;stroke-width:1;stroke-linecap:butt;stroke-linejoin:round;stroke-miterlimit:10;stroke-opacity:1;stroke-dasharray:none" /><text
       transform="matrix(1,0,0,-1,388.95362,115.50477)"
       id="text666"><tspan
         x="0 7.8179998"
         y="0"
         id="tspan668"
         style="font-size:12px;font-variant:normal;font-weight:normal;writing-mode:lr-tb;fill:#000000;fill-opacity:1;fill-rule:nonzero;stroke:none;font-family:DejaVu Sans;-inkscape-font-specification:DejaVuSans">14</tspan></text>
<path
       d="m 355.35363,97.879767 24,0 0,8.400003 -24,0 0,-8.400003 z"
       inkscape:connector-curvature="0"
       id="path670"
       style="fill:#ff2f00;fill-opacity:1;fill-rule:nonzero;stroke:#000000;stroke-width:1;stroke-linecap:butt;stroke-linejoin:round;stroke-miterlimit:10;stroke-opacity:1;stroke-dasharray:none" /><text
       transform="matrix(1,0,0,-1,388.95362,97.879767)"
       id="text672"><tspan
         x="0 7.8179998"
         y="0"
         id="tspan674"
         style="font-size:12px;font-variant:normal;font-weight:normal;writing-mode:lr-tb;fill:#000000;fill-opacity:1;fill-rule:nonzero;stroke:none;font-family:DejaVu Sans;-inkscape-font-specification:DejaVuSans">15</tspan></text>
<path
       d="m 355.35363,80.254767 24,0 0,8.4 -24,0 0,-8.4 z"
       inkscape:connector-curvature="0"
       id="path676"
       style="fill:#d80000;fill-opacity:1;fill-rule:nonzero;stroke:#000000;stroke-width:1;stroke-linecap:butt;stroke-linejoin:round;stroke-miterlimit:10;stroke-opacity:1;stroke-dasharray:none" /><text
       transform="matrix(1,0,0,-1,388.95362,80.254767)"
       id="text678"><tspan
         x="0 7.8179998"
         y="0"
         id="tspan680"
         style="font-size:12px;font-variant:normal;font-weight:normal;writing-mode:lr-tb;fill:#000000;fill-opacity:1;fill-rule:nonzero;stroke:none;font-family:DejaVu Sans;-inkscape-font-specification:DejaVuSans">16</tspan></text>
<path
       d="m 426.2505,115.50477 24,0 0,8.4 -24,0 0,-8.4 z"
       inkscape:connector-curvature="0"
       id="path682"
       style="fill:#8b0000;fill-opacity:1;fill-rule:nonzero;stroke:#000000;stroke-width:1;stroke-linecap:butt;stroke-linejoin:round;stroke-miterlimit:10;stroke-opacity:1;stroke-dasharray:none" /><text
       transform="matrix(1,0,0,-1,459.8505,115.50477)"
       id="text684"><tspan
         x="0 7.8179998"
         y="0"
         id="tspan686"
         style="font-size:12px;font-variant:normal;font-weight:normal;writing-mode:lr-tb;fill:#000000;fill-opacity:1;fill-rule:nonzero;stroke:none;font-family:DejaVu Sans;-inkscape-font-specification:DejaVuSans">17</tspan></text>
<path
       d="m 426.2505,97.879767 24,0 0,8.400003 -24,0 0,-8.400003 z"
       inkscape:connector-curvature="0"
       id="path688"
       style="fill:#80006e;fill-opacity:1;fill-rule:nonzero;stroke:#000000;stroke-width:1;stroke-linecap:butt;stroke-linejoin:round;stroke-miterlimit:10;stroke-opacity:1;stroke-dasharray:none" /><text
       transform="matrix(1,0,0,-1,459.8505,97.879767)"
       id="text690"><tspan
         x="0 7.8179998"
         y="0"
         id="tspan692"
         style="font-size:12px;font-variant:normal;font-weight:normal;writing-mode:lr-tb;fill:#000000;fill-opacity:1;fill-rule:nonzero;stroke:none;font-family:DejaVu Sans;-inkscape-font-specification:DejaVuSans">18</tspan></text>
<path
       d="m 426.2505,80.254767 24,0 0,8.4 -24,0 0,-8.4 z"
       inkscape:connector-curvature="0"
       id="path694"
       style="fill:#c49ac4;fill-opacity:1;fill-rule:nonzero;stroke:#000000;stroke-width:1;stroke-linecap:butt;stroke-linejoin:round;stroke-miterlimit:10;stroke-opacity:1;stroke-dasharray:none" /><text
       transform="matrix(1,0,0,-1,459.8505,80.254767)"
       id="text696"><tspan
         x="0 7.8179998"
         y="0"
         id="tspan698"
         style="font-size:12px;font-variant:normal;font-weight:normal;writing-mode:lr-tb;fill:#000000;fill-opacity:1;fill-rule:nonzero;stroke:none;font-family:DejaVu Sans;-inkscape-font-specification:DejaVuSans">19</tspan></text>
<path
       d="m 496.99112,115.50477 24,0 0,8.4 -24,0 0,-8.4 z"
       inkscape:connector-curvature="0"
       id="path700"
       style="fill:#fe1792;fill-opacity:1;fill-rule:nonzero;stroke:#000000;stroke-width:1;stroke-linecap:butt;stroke-linejoin:round;stroke-miterlimit:10;stroke-opacity:1;stroke-dasharray:none" /><text
       transform="matrix(1,0,0,-1,530.59112,115.50477)"
       id="text702"><tspan
         x="0 7.8179998"
         y="0"
         id="tspan704"
         style="font-size:12px;font-variant:normal;font-weight:normal;writing-mode:lr-tb;fill:#000000;fill-opacity:1;fill-rule:nonzero;stroke:none;font-family:DejaVu Sans;-inkscape-font-specification:DejaVuSans">20</tspan></text>
<path
       d="m 496.99112,97.879767 24,0 0,8.400003 -24,0 0,-8.400003 z"
       inkscape:connector-curvature="0"
       id="path706"
       style="fill:#008080;fill-opacity:1;fill-rule:nonzero;stroke:#000000;stroke-width:1;stroke-linecap:butt;stroke-linejoin:round;stroke-miterlimit:10;stroke-opacity:1;stroke-dasharray:none" /><text
       transform="matrix(1,0,0,-1,530.59112,97.879767)"
       id="text708"><tspan
         x="0 7.8179998"
         y="0"
         id="tspan710"
         style="font-size:12px;font-variant:normal;font-weight:normal;writing-mode:lr-tb;fill:#000000;fill-opacity:1;fill-rule:nonzero;stroke:none;font-family:DejaVu Sans;-inkscape-font-specification:DejaVuSans">21</tspan></text>
<path
       d="m 496.99112,80.254767 24,0 0,8.4 -24,0 0,-8.4 z"
       inkscape:connector-curvature="0"
       id="path712"
       style="fill:#000080;fill-opacity:1;fill-rule:nonzero;stroke:#000000;stroke-width:1;stroke-linecap:butt;stroke-linejoin:round;stroke-miterlimit:10;stroke-opacity:1;stroke-dasharray:none" /><text
       transform="matrix(1,0,0,-1,530.59112,80.254767)"
       id="text714"><tspan
         x="0 7.8179998"
         y="0"
         id="tspan716"
         style="font-size:12px;font-variant:normal;font-weight:normal;writing-mode:lr-tb;fill:#000000;fill-opacity:1;fill-rule:nonzero;stroke:none;font-family:DejaVu Sans;-inkscape-font-specification:DejaVuSans">22</tspan></text>
</g></svg>