<?xml version="1.0" encoding="UTF-8" standalone="no"?>
<!-- Created with Inkscape (http://www.inkscape.org/) -->

<svg
   xmlns:dc="http://purl.org/dc/elements/1.1/"
   xmlns:cc="http://creativecommons.org/ns#"
   xmlns:rdf="http://www.w3.org/1999/02/22-rdf-syntax-ns#"
   xmlns:svg="http://www.w3.org/2000/svg"
   xmlns="http://www.w3.org/2000/svg"
   xmlns:sodipodi="http://sodipodi.sourceforge.net/DTD/sodipodi-0.dtd"
   xmlns:inkscape="http://www.inkscape.org/namespaces/inkscape"
   viewBox="0 0 415 385"
   id="svg4949"
   version="1.1"
   inkscape:version="0.48.4 r9939"
   sodipodi:docname="dalogo.pdf">
  <defs
     id="defs4951">
    <clipPath
       clipPathUnits="userSpaceOnUse"
       id="clipPath50">
      <path
         inkscape:connector-curvature="0"
         d="m 680.503,1264.345 328.666,0 0,306.167 -328.666,0 0,-306.167 z"
         id="path52" />
    </clipPath>
  </defs>
  <sodipodi:namedview
     id="base"
     pagecolor="#ffffff"
     bordercolor="#666666"
     borderopacity="1.0"
     inkscape:pageopacity="0.0"
     inkscape:pageshadow="2"
     inkscape:zoom="1.979899"
     inkscape:cx="244.93238"
     inkscape:cy="263.69821"
     inkscape:document-units="px"
     inkscape:current-layer="layer1"
     showgrid="false"
     inkscape:window-width="1280"
     inkscape:window-height="1416"
     inkscape:window-x="1280"
     inkscape:window-y="24"
     inkscape:window-maximized="1" />
  <metadata
     id="metadata4954">
    <rdf:RDF>
      <cc:Work
         rdf:about="">
        <dc:format>image/svg+xml</dc:format>
        <dc:type
           rdf:resource="http://purl.org/dc/dcmitype/StillImage" />
        <dc:title></dc:title>
      </cc:Work>
    </rdf:RDF>
  </metadata>
  <g
     inkscape:label="Layer 1"
     inkscape:groupmode="layer"
     id="layer1"
     transform="translate(0,-667.36215)">
    <g
       transform="matrix(1.25,0,0,-1.25,-847.96345,2633.6568)"
       id="g4883">
      <g
         id="g46">
        <g
           clip-path="url(#clipPath50)"
           id="g48">
          <g
             transform="translate(1006.9178,1276.8623)"
             id="g54">
            <path
               inkscape:connector-curvature="0"
               id="path56"
               style="fill:none;stroke:#181817;stroke-width:1.5;stroke-linecap:butt;stroke-linejoin:miter;stroke-miterlimit:10;stroke-opacity:1;stroke-dasharray:none"
               d="m 0,0 c 0,-5.671 -4.598,-10.268 -10.268,-10.268 l -126.197,0 c -5.671,0 -10.268,4.597 -10.268,10.268 l 0,258.8 c 0,5.67 4.597,10.268 10.268,10.268 l 126.197,0 C -4.598,269.068 0,264.47 0,258.8 L 0,0 z" />
          </g>
          <g
             transform="translate(999.4391,1310.3999)"
             id="g58">
            <path
               inkscape:connector-curvature="0"
               id="path60"
               style="fill:#231f20;fill-opacity:1;fill-rule:nonzero;stroke:none"
               d="m 0,0 c 0,-5.671 -4.784,-10.268 -10.685,-10.268 l -110.406,0 c -5.901,0 -10.685,4.597 -10.685,10.268 l 0,212.325 c 0,5.671 4.784,10.268 10.685,10.268 l 110.406,0 C -4.784,222.593 0,217.996 0,212.325 L 0,0 z" />
          </g>
          <g
             transform="translate(939.3893,1285.1211)"
             id="g62">
            <path
               inkscape:connector-curvature="0"
               id="path64"
               style="fill:#ffffff;fill-opacity:1;fill-rule:nonzero;stroke:none"
               d="m 0,0 c 0,3.225 -2.613,5.838 -5.838,5.838 -3.224,0 -5.837,-2.613 -5.837,-5.838 0,-3.225 2.613,-5.837 5.837,-5.837 C -2.613,-5.837 0,-3.225 0,0" />
          </g>
          <g
             transform="translate(939.3893,1285.1211)"
             id="g66">
            <path
               inkscape:connector-curvature="0"
               id="path68"
               style="fill:none;stroke:#181817;stroke-width:1.5;stroke-linecap:butt;stroke-linejoin:miter;stroke-miterlimit:10;stroke-opacity:1;stroke-dasharray:none"
               d="m 0,0 c 0,3.225 -2.613,5.838 -5.838,5.838 -3.224,0 -5.837,-2.613 -5.837,-5.838 0,-3.225 2.613,-5.837 5.837,-5.837 C -2.613,-5.837 0,-3.225 0,0 z" />
          </g>
        </g>
      </g>
      <g
         transform="translate(810.9088,1489.3247)"
         id="g70">
        <path
           inkscape:connector-curvature="0"
           id="path72"
           style="fill:#fbc712;fill-opacity:1;fill-rule:nonzero;stroke:none"
           d="m 0,0 0.121,-31.78 -14.767,2.162 -0.214,25.821 -13.095,1.797 -1.014,77.656 22.344,5.532 35.078,-3 0,-70.095 -5.39,0.673 L 0,0 z" />
      </g>
      <g
         transform="translate(818.0807,1561.6528)"
         id="g74">
        <path
           inkscape:connector-curvature="0"
           id="path76"
           style="fill:#b9920d;fill-opacity:1;fill-rule:nonzero;stroke:none"
           d="M 0,0 -36.141,3.328 -14.438,8.86 21.281,5.86 0,0 z" />
      </g>
      <g
         transform="translate(839.3619,1497.418)"
         id="g78">
        <path
           inkscape:connector-curvature="0"
           id="path80"
           style="fill:#765c08;fill-opacity:1;fill-rule:nonzero;stroke:none"
           d="M 0,0 -5.391,0.672 -20.986,-5.255 -21.281,64.234 0,70.094 0,0 z" />
      </g>
      <g
         transform="translate(873.4072,1467.7703)"
         id="g82">
        <path
           inkscape:connector-curvature="0"
           id="path84"
           style="fill:#fbc712;fill-opacity:1;fill-rule:nonzero;stroke:none"
           d="m 0,0 0.408,25.352 -18.26,2.277 0.213,10.848 20.11,7.546 L 40.252,41.664 39.377,-5.478 0,0 z" />
      </g>
      <g
         transform="translate(894.3467,1501.5122)"
         id="g86">
        <path
           inkscape:connector-curvature="0"
           id="path88"
           style="fill:#b9920d;fill-opacity:1;fill-rule:nonzero;stroke:none"
           d="M 0,0 -38.578,4.735 -18.469,12.281 19.313,7.922 0,0 z" />
      </g>
      <g
         transform="translate(913.6592,1509.4341)"
         id="g90">
        <path
           inkscape:connector-curvature="0"
           id="path92"
           style="fill:#765c08;fill-opacity:1;fill-rule:nonzero;stroke:none"
           d="M 0,0 -19.313,-7.922 -19.807,-44.508 -0.875,-47.142 0,0 z" />
      </g>
      <g
         transform="translate(956.9248,1445.4028)"
         id="g94">
        <path
           inkscape:connector-curvature="0"
           id="path96"
           style="fill:#fbc712;fill-opacity:1;fill-rule:nonzero;stroke:none"
           d="m 0,0 -23.373,3.352 1.607,65.789 18.625,7.687 L 37.781,72.422 32.797,-47.516 15.985,-59.391 -1.723,-56.454 0,0 z" />
      </g>
      <g
         transform="translate(977.4092,1509.9966)"
         id="g98">
        <path
           inkscape:connector-curvature="0"
           id="path100"
           style="fill:#b9920d;fill-opacity:1;fill-rule:nonzero;stroke:none"
           d="M 0,0 -42.25,4.547 -23.625,12.235 17.297,7.828 0,0 z" />
      </g>
      <g
         transform="translate(977.4092,1509.9966)"
         id="g102">
        <path
           inkscape:connector-curvature="0"
           id="path104"
           style="fill:#765c08;fill-opacity:1;fill-rule:nonzero;stroke:none"
           d="M 0,0 17.297,7.828 12.312,-112.109 -4.5,-123.985 0,0 z" />
      </g>
      <g
         transform="translate(786.1277,1461.0433)"
         id="g106">
        <path
           inkscape:connector-curvature="0"
           id="path108"
           style="fill:#8cd02f;fill-opacity:1;fill-rule:nonzero;stroke:none"
           d="m 0,0 -26.969,-10.813 1.092,-58.032 -12.467,2.409 -1.281,54.123 -10.954,1.749 -0.483,31.345 L -26.641,29.5 9.922,24.484 10.135,-1.337 0,0 z" />
      </g>
      <g
         transform="translate(772.1432,1476.5278)"
         id="g110">
        <path
           inkscape:connector-curvature="0"
           id="path112"
           style="fill:#679921;fill-opacity:1;fill-rule:nonzero;stroke:none"
           d="M 0,0 -37.078,5.297 -12.656,14.016 23.906,9 0,0 z" />
      </g>
      <g
         transform="translate(796.263,1459.7067)"
         id="g114">
        <path
           inkscape:connector-curvature="0"
           id="path116"
           style="fill:#416114;fill-opacity:1;fill-rule:nonzero;stroke:none"
           d="m 0,0 -10.135,1.337 -13.742,-5.421 -0.243,20.905 23.906,9 L 0,0 z" />
      </g>
      <g
         transform="translate(871.2216,1468.0742)"
         id="g118">
        <path
           inkscape:connector-curvature="0"
           id="path120"
           style="fill:#8cd02f;fill-opacity:1;fill-rule:nonzero;stroke:none"
           d="m 0,0 -24.688,-11 -0.339,-80.937 -18.504,3.5 0,75.469 -16.661,2.439 -0.121,31.779 23.063,8.766 L 2.594,25.047 2.186,-0.304 0,0 z" />
      </g>
      <g
         transform="translate(851.5494,1483.981)"
         id="g122">
        <path
           inkscape:connector-curvature="0"
           id="path124"
           style="fill:#679921;fill-opacity:1;fill-rule:nonzero;stroke:none"
           d="M 0,0 -40.641,5.344 -17.578,14.11 22.266,9.141 0,0 z" />
      </g>
      <g
         transform="translate(871.2216,1468.0742)"
         id="g126">
        <path
           inkscape:connector-curvature="0"
           id="path128"
           style="fill:#416114;fill-opacity:1;fill-rule:nonzero;stroke:none"
           d="m 0,0 -19.672,-8.765 0,24.672 22.266,9.14 L 2.186,-0.304 0,0 z" />
      </g>
      <g
         transform="translate(954.7217,1373.1685)"
         id="g130">
        <path
           inkscape:connector-curvature="0"
           id="path132"
           style="fill:#8cd02f;fill-opacity:1;fill-rule:nonzero;stroke:none"
           d="m 0,0 -19.406,-13.735 -20.717,3.844 1.784,87.939 L 2.203,72.235 0,0 z" />
      </g>
      <g
         transform="translate(916.3824,1451.2168)"
         id="g134">
        <path
           inkscape:connector-curvature="0"
           id="path136"
           style="fill:#679921;fill-opacity:1;fill-rule:nonzero;stroke:none"
           d="M 0,0 -0.283,-13.926 20.902,-17.11 40.543,-5.814 0,0 z" />
      </g>
      <g
         transform="translate(956.9248,1445.4028)"
         id="g138">
        <path
           inkscape:connector-curvature="0"
           id="path140"
           style="fill:#416114;fill-opacity:1;fill-rule:nonzero;stroke:none"
           d="M 0,0 -19.641,-11.297 -21.61,-85.969 -2.203,-72.235 0,0 z" />
      </g>
      <g
         transform="translate(721.2838,1363.7935)"
         id="g142">
        <path
           inkscape:connector-curvature="0"
           id="path144"
           style="fill:#ec1c24;fill-opacity:1;fill-rule:nonzero;stroke:none"
           d="m 0,0 -38.156,8.156 -2.625,72.375 28.406,10.407 37.594,-6 1.687,-71.25 L 0,0 z" />
      </g>
      <g
         transform="translate(719.2213,1437.6685)"
         id="g146">
        <path
           inkscape:connector-curvature="0"
           id="path148"
           style="fill:#b01419;fill-opacity:1;fill-rule:nonzero;stroke:none"
           d="m 0,0 -38.719,6.656 28.406,10.407 37.594,-6 L 0,0 z" />
      </g>
      <g
         transform="translate(748.1901,1377.481)"
         id="g150">
        <path
           inkscape:connector-curvature="0"
           id="path152"
           style="fill:#730b0e;fill-opacity:1;fill-rule:nonzero;stroke:none"
           d="M 0,0 -26.906,-13.688 -28.969,60.188 -1.688,71.25 0,0 z" />
      </g>
      <g
         transform="translate(827.6901,1361.6372)"
         id="g154">
        <path
           inkscape:connector-curvature="0"
           id="path156"
           style="fill:#ec1c24;fill-opacity:1;fill-rule:nonzero;stroke:none"
           d="M 0,0 -25.219,-14.719 -66.75,-6.094 -68.531,88.594 -41.625,99.563 0,93.469 0,0 z" />
      </g>
      <g
         transform="translate(801.8151,1443.6685)"
         id="g158">
        <path
           inkscape:connector-curvature="0"
           id="path160"
           style="fill:#b01419;fill-opacity:1;fill-rule:nonzero;stroke:none"
           d="M 0,0 -42.656,6.563 -15.75,17.531 25.875,11.438 0,0 z" />
      </g>
      <g
         transform="translate(827.6901,1361.6372)"
         id="g162">
        <path
           inkscape:connector-curvature="0"
           id="path164"
           style="fill:#730b0e;fill-opacity:1;fill-rule:nonzero;stroke:none"
           d="M 0,0 -25.219,-14.719 -25.875,82.031 0,93.469 0,0 z" />
      </g>
      <g
         transform="translate(914.2217,1344.6992)"
         id="g166">
        <path
           inkscape:connector-curvature="0"
           id="path168"
           style="fill:#ec1c24;fill-opacity:1;fill-rule:nonzero;stroke:none"
           d="m 0,0 -22.75,-16.124 -45.438,9.374 0.5,119.125 24.688,11 L 2.375,117.062 0,0 z" />
      </g>
      <g
         transform="translate(893.3462,1450.1365)"
         id="g170">
        <path
           inkscape:connector-curvature="0"
           id="path172"
           style="fill:#b01419;fill-opacity:1;fill-rule:nonzero;stroke:none"
           d="m 0,0 -46.813,6.938 24.688,11 L 23.25,11.625 0,0 z" />
      </g>
      <g
         transform="translate(893.3462,1450.1365)"
         id="g174">
        <path
           inkscape:connector-curvature="0"
           id="path176"
           style="fill:#730b0e;fill-opacity:1;fill-rule:nonzero;stroke:none"
           d="M 0,0 23.25,11.625 20.875,-105.437 -1.875,-121.562 0,0 z" />
      </g>
    </g>
  </g>
</svg>
